<svg xmlns="http://www.w3.org/2000/svg" xmlns:xlink="http://www.w3.org/1999/xlink" width="2607" height="227" viewBox="0 0 2607 227"><defs><clipPath id="b"><rect width="2607" height="227"/></clipPath></defs><g id="a" clip-path="url(#b)"><rect width="2607" height="227" fill="rgba(255,255,255,0)"/><g transform="translate(44 -848)"><g transform="translate(-135.111 192.881)"><path d="M26.916,10.693a7,7,0,0,1,12.168,0L60.048,47.538A7,7,0,0,1,53.964,58H12.036A7,7,0,0,1,5.952,47.538Z" transform="translate(205.111 697.119)" fill="#1e2d32"/><path d="M56.5,0,113,97H0Z" transform="translate(182.111 725.119)" fill="#1e2d32"/><path d="M66,0l66,119H0Z" transform="translate(172.111 763.119)" fill="#1e2d32"/></g><g transform="translate(-216 151)"><path d="M33.9,10.825a7,7,0,0,1,12.2,0L74.121,60.564A7,7,0,0,1,68.022,71H11.978a7,7,0,0,1-6.1-10.436Z" transform="translate(213 697)" fill="#4f6563"/><path d="M63.455,10.35a7,7,0,0,1,12.089,0l57.305,98.12A7,7,0,0,1,126.805,119H12.195A7,7,0,0,1,6.15,108.47Z" transform="translate(184 732)" fill="#4f6563"/><path d="M74.879,11.033a7,7,0,0,1,12.242,0L156.232,135.6a7,7,0,0,1-6.121,10.4H11.889a7,7,0,0,1-6.121-10.4Z" transform="translate(172 778)" fill="#4f6563"/></g><g transform="translate(8.338 180.726)"><path d="M25.78,12.052a7,7,0,0,1,12.441,0L58.73,51.79A7,7,0,0,1,52.51,62H11.49A7,7,0,0,1,5.27,51.79Z" transform="translate(203.662 697.274)" fill="#1e2d32"/><path d="M53.5,0,107,103H0Z" transform="translate(182.662 727.274)" fill="#1e2d32"/><path d="M63.5,0,127,127H0Z" transform="translate(171.662 767.274)" fill="#1e2d32"/></g><g transform="translate(-90.004 219.802)"><path d="M21.892,10.906a7,7,0,0,1,12.215,0L50.165,39.58A7,7,0,0,1,44.057,50H11.943A7,7,0,0,1,5.835,39.58Z" transform="translate(201.003 697.198)" fill="#ca9954"/><path d="M42.991,10.056a7,7,0,0,1,12.018,0L91.671,71.409A7,7,0,0,1,85.663,82H12.337A7,7,0,0,1,6.329,71.409Z" transform="translate(180.003 721.198)" fill="#ca9954"/><path d="M50.377,11.055a7,7,0,0,1,12.247,0l44.62,80.554A7,7,0,0,1,101.12,102H11.88A7,7,0,0,1,5.756,91.608Z" transform="translate(172.003 753.198)" fill="#ca9954"/></g><g transform="translate(-57.111 166.552)"><path d="M31.414,10.712a7,7,0,0,1,12.172,0l25.472,44.83A7,7,0,0,1,62.972,66H12.028A7,7,0,0,1,5.942,55.542Z" transform="translate(210.111 697.448)" fill="#4f6563"/><path d="M58.974,10.2a7,7,0,0,1,12.053,0l52.733,89.24A7,7,0,0,1,117.733,110H12.267A7,7,0,0,1,6.241,99.439Z" transform="translate(183.111 729.448)" fill="#4f6563"/><path d="M69.38,11.024a7,7,0,0,1,12.24,0L145.228,125.6a7,7,0,0,1-6.12,10.4H11.892a7,7,0,0,1-6.12-10.4Z" transform="translate(172.111 772.448)" fill="#4f6563"/></g><g transform="translate(271.338 174.881)"><path d="M29.922,10.636a7,7,0,0,1,12.155,0L66.015,52.527A7,7,0,0,1,59.938,63H12.062A7,7,0,0,1,5.985,52.527Z" transform="translate(208.662 697.119)" fill="#1e2d32"/><path d="M62,0l62,107H0Z" transform="translate(183.662 728.119)" fill="#1e2d32"/><path d="M72.5,0,145,131H0Z" transform="translate(171.662 769.119)" fill="#1e2d32"/></g><g transform="translate(135.338 166.881)"><path d="M31.414,10.712a7,7,0,0,1,12.172,0l25.472,44.83A7,7,0,0,1,62.972,66H12.028A7,7,0,0,1,5.942,55.542Z" transform="translate(209.662 697.119)" fill="#1e2d32"/><path d="M64.5,0,129,111H0Z" transform="translate(183.662 729.119)" fill="#1e2d32"/><path d="M75.5,0,151,136H0Z" transform="translate(171.662 772.119)" fill="#1e2d32"/></g><g transform="translate(87.389 192.181)"><path d="M26.891,10.923a7,7,0,0,1,12.219,0l21.064,37.66A7,7,0,0,1,54.064,59H11.936A7,7,0,0,1,5.826,48.583Z" transform="translate(205.611 696.819)" fill="#4f6563"/><path d="M50.436,10.519a7,7,0,0,1,12.129,0L106.949,87.5A7,7,0,0,1,100.884,98H12.116A7,7,0,0,1,6.051,87.5Z" transform="translate(182.611 724.819)" fill="#4f6563"/><path d="M59.878,11.037a7,7,0,0,1,12.243,0L126.235,108.6a7,7,0,0,1-6.122,10.4H11.887a7,7,0,0,1-6.122-10.4Z" transform="translate(172.611 763.819)" fill="#4f6563"/></g><g transform="translate(385.251 192.404)"><path d="M26.916,10.693a7,7,0,0,1,12.168,0L60.048,47.538A7,7,0,0,1,53.964,58H12.036A7,7,0,0,1,5.952,47.538Z" transform="translate(205.749 697.596)" fill="#4f6563"/><path d="M56.5,0,113,98H0Z" transform="translate(182.749 724.596)" fill="#4f6563"/><path d="M66.5,0,133,120H0Z" transform="translate(171.749 762.596)" fill="#4f6563"/></g><g transform="translate(51.996 219.802)"><path d="M21.892,10.906a7,7,0,0,1,12.215,0L50.165,39.58A7,7,0,0,1,44.057,50H11.943A7,7,0,0,1,5.835,39.58Z" transform="translate(201.003 697.198)" fill="#ca9954"/><path d="M42.991,10.056a7,7,0,0,1,12.018,0L91.671,71.409A7,7,0,0,1,85.663,82H12.337A7,7,0,0,1,6.329,71.409Z" transform="translate(180.003 721.198)" fill="#ca9954"/><path d="M50.377,11.055a7,7,0,0,1,12.247,0l44.62,80.554A7,7,0,0,1,101.12,102H11.88A7,7,0,0,1,5.756,91.608Z" transform="translate(172.003 753.198)" fill="#ca9954"/></g><g transform="translate(210.889 150.559)"><path d="M34.42,10.659a7,7,0,0,1,12.161,0L75.029,60.532A7,7,0,0,1,68.948,71h-56.9a7,7,0,0,1-6.08-10.468Z" transform="translate(213.111 697.441)" fill="#4f6563"/><path d="M63.443,10.459a7,7,0,0,1,12.115,0l57.357,99.033A7,7,0,0,1,126.857,120H12.143a7,7,0,0,1-6.057-10.508Z" transform="translate(184.111 731.441)" fill="#4f6563"/><path d="M74.879,11.033a7,7,0,0,1,12.242,0L156.232,135.6a7,7,0,0,1-6.121,10.4H11.889a7,7,0,0,1-6.121-10.4Z" transform="translate(172.111 778.441)" fill="#4f6563"/></g><g transform="translate(545.338 166.881)"><path d="M31.414,10.712a7,7,0,0,1,12.172,0l25.472,44.83A7,7,0,0,1,62.972,66H12.028A7,7,0,0,1,5.942,55.542Z" transform="translate(209.662 697.119)" fill="#1e2d32"/><path d="M58.448,10.416a7,7,0,0,1,12.1,0l52.336,90.067A7,7,0,0,1,116.836,111H12.164a7,7,0,0,1-6.052-10.517Z" transform="translate(183.662 729.119)" fill="#1e2d32"/><path d="M69.38,11.024a7,7,0,0,1,12.24,0L145.228,125.6a7,7,0,0,1-6.12,10.4H11.892a7,7,0,0,1-6.12-10.4Z" transform="translate(171.662 772.119)" fill="#1e2d32"/></g><g transform="translate(559.996 241.968)"><path d="M17.888,10.951a7,7,0,0,1,12.225,0L42.189,32.588A7,7,0,0,1,36.077,43H11.923A7,7,0,0,1,5.811,32.588Z" transform="translate(197.004 697.032)" fill="#ca9954"/><path d="M36,10a7,7,0,0,1,12,0L77.639,59.4a7,7,0,0,1-6,10.6H12.363a7,7,0,0,1-6-10.6Z" transform="translate(179.004 718.032)" fill="#ca9954"/><path d="M42.369,11.124a7,7,0,0,1,12.261,0l36.649,66.5A7,7,0,0,1,85.149,88h-73.3A7,7,0,0,1,5.72,77.621Z" transform="translate(172.004 745.032)" fill="#ca9954"/></g><g transform="translate(435.338 203.213)"><path d="M25.426,10.606a7,7,0,0,1,12.149,0L57,44.521A7,7,0,0,1,50.924,55H12.076A7,7,0,0,1,6,44.521Z" transform="translate(202.662 696.787)" fill="#1e2d32"/><path d="M47.449,10.406a7,7,0,0,1,12.1,0l41.332,71.075A7,7,0,0,1,94.832,92H12.168A7,7,0,0,1,6.117,81.481Z" transform="translate(181.662 723.787)" fill="#1e2d32"/><path d="M62.5,0,125,113H0Z" transform="translate(171.662 758.787)" fill="#1e2d32"/></g><g transform="translate(352.414 207.802)"><path d="M23.881,11.014a7,7,0,0,1,12.238,0L54.222,43.6A7,7,0,0,1,48.1,54H11.9A7,7,0,0,1,5.777,43.6Z" transform="translate(203.586 697.198)" fill="#ca9954"/><path d="M46.489,10.076a7,7,0,0,1,12.023,0L98.684,77.414A7,7,0,0,1,92.673,88H12.327A7,7,0,0,1,6.316,77.414Z" transform="translate(180.586 723.198)" fill="#ca9954"/><path d="M54.878,11.039a7,7,0,0,1,12.243,0l49.114,88.566A7,7,0,0,1,110.114,110H11.886A7,7,0,0,1,5.764,99.605Z" transform="translate(171.586 757.198)" fill="#ca9954"/></g><g transform="translate(484.233 174.296)"><path d="M30.419,10.662a7,7,0,0,1,12.161,0L67.03,53.532A7,7,0,0,1,60.949,64h-48.9A7,7,0,0,1,5.97,53.532Z" transform="translate(208.768 697.704)" fill="#4f6563"/><path d="M55.943,10.453a7,7,0,0,1,12.113,0L117.91,96.491A7,7,0,0,1,111.854,107H12.146A7,7,0,0,1,6.09,96.491Z" transform="translate(183.768 727.704)" fill="#4f6563"/><path d="M66.874,11.077a7,7,0,0,1,12.251,0l61.13,110.536A7,7,0,0,1,134.13,132H11.87a7,7,0,0,1-6.126-10.388Z" transform="translate(171.768 768.704)" fill="#4f6563"/></g></g><g transform="translate(903 -848)"><g transform="translate(-135.111 192.881)"><path d="M26.916,10.693a7,7,0,0,1,12.168,0L60.048,47.538A7,7,0,0,1,53.964,58H12.036A7,7,0,0,1,5.952,47.538Z" transform="translate(205.111 697.119)" fill="#1e2d32"/><path d="M56.5,0,113,97H0Z" transform="translate(182.111 725.119)" fill="#1e2d32"/><path d="M66,0l66,119H0Z" transform="translate(172.111 763.119)" fill="#1e2d32"/></g><g transform="translate(-216 151)"><path d="M33.9,10.825a7,7,0,0,1,12.2,0L74.121,60.564A7,7,0,0,1,68.022,71H11.978a7,7,0,0,1-6.1-10.436Z" transform="translate(213 697)" fill="#4f6563"/><path d="M63.455,10.35a7,7,0,0,1,12.089,0l57.305,98.12A7,7,0,0,1,126.805,119H12.195A7,7,0,0,1,6.15,108.47Z" transform="translate(184 732)" fill="#4f6563"/><path d="M74.879,11.033a7,7,0,0,1,12.242,0L156.232,135.6a7,7,0,0,1-6.121,10.4H11.889a7,7,0,0,1-6.121-10.4Z" transform="translate(172 778)" fill="#4f6563"/></g><g transform="translate(8.338 180.726)"><path d="M25.78,12.052a7,7,0,0,1,12.441,0L58.73,51.79A7,7,0,0,1,52.51,62H11.49A7,7,0,0,1,5.27,51.79Z" transform="translate(203.662 697.274)" fill="#1e2d32"/><path d="M53.5,0,107,103H0Z" transform="translate(182.662 727.274)" fill="#1e2d32"/><path d="M63.5,0,127,127H0Z" transform="translate(171.662 767.274)" fill="#1e2d32"/></g><g transform="translate(-90.004 219.802)"><path d="M21.892,10.906a7,7,0,0,1,12.215,0L50.165,39.58A7,7,0,0,1,44.057,50H11.943A7,7,0,0,1,5.835,39.58Z" transform="translate(201.003 697.198)" fill="#ca9954"/><path d="M42.991,10.056a7,7,0,0,1,12.018,0L91.671,71.409A7,7,0,0,1,85.663,82H12.337A7,7,0,0,1,6.329,71.409Z" transform="translate(180.003 721.198)" fill="#ca9954"/><path d="M50.377,11.055a7,7,0,0,1,12.247,0l44.62,80.554A7,7,0,0,1,101.12,102H11.88A7,7,0,0,1,5.756,91.608Z" transform="translate(172.003 753.198)" fill="#ca9954"/></g><g transform="translate(-57.111 166.552)"><path d="M31.414,10.712a7,7,0,0,1,12.172,0l25.472,44.83A7,7,0,0,1,62.972,66H12.028A7,7,0,0,1,5.942,55.542Z" transform="translate(210.111 697.448)" fill="#4f6563"/><path d="M58.974,10.2a7,7,0,0,1,12.053,0l52.733,89.24A7,7,0,0,1,117.733,110H12.267A7,7,0,0,1,6.241,99.439Z" transform="translate(183.111 729.448)" fill="#4f6563"/><path d="M69.38,11.024a7,7,0,0,1,12.24,0L145.228,125.6a7,7,0,0,1-6.12,10.4H11.892a7,7,0,0,1-6.12-10.4Z" transform="translate(172.111 772.448)" fill="#4f6563"/></g><g transform="translate(271.338 174.881)"><path d="M29.922,10.636a7,7,0,0,1,12.155,0L66.015,52.527A7,7,0,0,1,59.938,63H12.062A7,7,0,0,1,5.985,52.527Z" transform="translate(208.662 697.119)" fill="#1e2d32"/><path d="M62,0l62,107H0Z" transform="translate(183.662 728.119)" fill="#1e2d32"/><path d="M72.5,0,145,131H0Z" transform="translate(171.662 769.119)" fill="#1e2d32"/></g><g transform="translate(135.338 166.881)"><path d="M31.414,10.712a7,7,0,0,1,12.172,0l25.472,44.83A7,7,0,0,1,62.972,66H12.028A7,7,0,0,1,5.942,55.542Z" transform="translate(209.662 697.119)" fill="#1e2d32"/><path d="M64.5,0,129,111H0Z" transform="translate(183.662 729.119)" fill="#1e2d32"/><path d="M75.5,0,151,136H0Z" transform="translate(171.662 772.119)" fill="#1e2d32"/></g><g transform="translate(87.389 192.181)"><path d="M26.891,10.923a7,7,0,0,1,12.219,0l21.064,37.66A7,7,0,0,1,54.064,59H11.936A7,7,0,0,1,5.826,48.583Z" transform="translate(205.611 696.819)" fill="#4f6563"/><path d="M50.436,10.519a7,7,0,0,1,12.129,0L106.949,87.5A7,7,0,0,1,100.884,98H12.116A7,7,0,0,1,6.051,87.5Z" transform="translate(182.611 724.819)" fill="#4f6563"/><path d="M59.878,11.037a7,7,0,0,1,12.243,0L126.235,108.6a7,7,0,0,1-6.122,10.4H11.887a7,7,0,0,1-6.122-10.4Z" transform="translate(172.611 763.819)" fill="#4f6563"/></g><g transform="translate(385.251 192.404)"><path d="M26.916,10.693a7,7,0,0,1,12.168,0L60.048,47.538A7,7,0,0,1,53.964,58H12.036A7,7,0,0,1,5.952,47.538Z" transform="translate(205.749 697.596)" fill="#4f6563"/><path d="M56.5,0,113,98H0Z" transform="translate(182.749 724.596)" fill="#4f6563"/><path d="M66.5,0,133,120H0Z" transform="translate(171.749 762.596)" fill="#4f6563"/></g><g transform="translate(51.996 219.802)"><path d="M21.892,10.906a7,7,0,0,1,12.215,0L50.165,39.58A7,7,0,0,1,44.057,50H11.943A7,7,0,0,1,5.835,39.58Z" transform="translate(201.003 697.198)" fill="#ca9954"/><path d="M42.991,10.056a7,7,0,0,1,12.018,0L91.671,71.409A7,7,0,0,1,85.663,82H12.337A7,7,0,0,1,6.329,71.409Z" transform="translate(180.003 721.198)" fill="#ca9954"/><path d="M50.377,11.055a7,7,0,0,1,12.247,0l44.62,80.554A7,7,0,0,1,101.12,102H11.88A7,7,0,0,1,5.756,91.608Z" transform="translate(172.003 753.198)" fill="#ca9954"/></g><g transform="translate(210.889 150.559)"><path d="M34.42,10.659a7,7,0,0,1,12.161,0L75.029,60.532A7,7,0,0,1,68.948,71h-56.9a7,7,0,0,1-6.08-10.468Z" transform="translate(213.111 697.441)" fill="#4f6563"/><path d="M63.443,10.459a7,7,0,0,1,12.115,0l57.357,99.033A7,7,0,0,1,126.857,120H12.143a7,7,0,0,1-6.057-10.508Z" transform="translate(184.111 731.441)" fill="#4f6563"/><path d="M74.879,11.033a7,7,0,0,1,12.242,0L156.232,135.6a7,7,0,0,1-6.121,10.4H11.889a7,7,0,0,1-6.121-10.4Z" transform="translate(172.111 778.441)" fill="#4f6563"/></g><g transform="translate(545.338 166.881)"><path d="M31.414,10.712a7,7,0,0,1,12.172,0l25.472,44.83A7,7,0,0,1,62.972,66H12.028A7,7,0,0,1,5.942,55.542Z" transform="translate(209.662 697.119)" fill="#1e2d32"/><path d="M58.448,10.416a7,7,0,0,1,12.1,0l52.336,90.067A7,7,0,0,1,116.836,111H12.164a7,7,0,0,1-6.052-10.517Z" transform="translate(183.662 729.119)" fill="#1e2d32"/><path d="M69.38,11.024a7,7,0,0,1,12.24,0L145.228,125.6a7,7,0,0,1-6.12,10.4H11.892a7,7,0,0,1-6.12-10.4Z" transform="translate(171.662 772.119)" fill="#1e2d32"/></g><g transform="translate(559.996 241.968)"><path d="M17.888,10.951a7,7,0,0,1,12.225,0L42.189,32.588A7,7,0,0,1,36.077,43H11.923A7,7,0,0,1,5.811,32.588Z" transform="translate(197.004 697.032)" fill="#ca9954"/><path d="M36,10a7,7,0,0,1,12,0L77.639,59.4a7,7,0,0,1-6,10.6H12.363a7,7,0,0,1-6-10.6Z" transform="translate(179.004 718.032)" fill="#ca9954"/><path d="M42.369,11.124a7,7,0,0,1,12.261,0l36.649,66.5A7,7,0,0,1,85.149,88h-73.3A7,7,0,0,1,5.72,77.621Z" transform="translate(172.004 745.032)" fill="#ca9954"/></g><g transform="translate(435.338 203.213)"><path d="M25.426,10.606a7,7,0,0,1,12.149,0L57,44.521A7,7,0,0,1,50.924,55H12.076A7,7,0,0,1,6,44.521Z" transform="translate(202.662 696.787)" fill="#1e2d32"/><path d="M47.449,10.406a7,7,0,0,1,12.1,0l41.332,71.075A7,7,0,0,1,94.832,92H12.168A7,7,0,0,1,6.117,81.481Z" transform="translate(181.662 723.787)" fill="#1e2d32"/><path d="M62.5,0,125,113H0Z" transform="translate(171.662 758.787)" fill="#1e2d32"/></g><g transform="translate(352.414 207.802)"><path d="M23.881,11.014a7,7,0,0,1,12.238,0L54.222,43.6A7,7,0,0,1,48.1,54H11.9A7,7,0,0,1,5.777,43.6Z" transform="translate(203.586 697.198)" fill="#ca9954"/><path d="M46.489,10.076a7,7,0,0,1,12.023,0L98.684,77.414A7,7,0,0,1,92.673,88H12.327A7,7,0,0,1,6.316,77.414Z" transform="translate(180.586 723.198)" fill="#ca9954"/><path d="M54.878,11.039a7,7,0,0,1,12.243,0l49.114,88.566A7,7,0,0,1,110.114,110H11.886A7,7,0,0,1,5.764,99.605Z" transform="translate(171.586 757.198)" fill="#ca9954"/></g><g transform="translate(484.233 174.296)"><path d="M30.419,10.662a7,7,0,0,1,12.161,0L67.03,53.532A7,7,0,0,1,60.949,64h-48.9A7,7,0,0,1,5.97,53.532Z" transform="translate(208.768 697.704)" fill="#4f6563"/><path d="M55.943,10.453a7,7,0,0,1,12.113,0L117.91,96.491A7,7,0,0,1,111.854,107H12.146A7,7,0,0,1,6.09,96.491Z" transform="translate(183.768 727.704)" fill="#4f6563"/><path d="M66.874,11.077a7,7,0,0,1,12.251,0l61.13,110.536A7,7,0,0,1,134.13,132H11.87a7,7,0,0,1-6.126-10.388Z" transform="translate(171.768 768.704)" fill="#4f6563"/></g></g><g transform="translate(1739 -848)"><g transform="translate(-135.111 192.881)"><path d="M26.916,10.693a7,7,0,0,1,12.168,0L60.048,47.538A7,7,0,0,1,53.964,58H12.036A7,7,0,0,1,5.952,47.538Z" transform="translate(205.111 697.119)" fill="#1e2d32"/><path d="M56.5,0,113,97H0Z" transform="translate(182.111 725.119)" fill="#1e2d32"/><path d="M66,0l66,119H0Z" transform="translate(172.111 763.119)" fill="#1e2d32"/></g><g transform="translate(-216 151)"><path d="M33.9,10.825a7,7,0,0,1,12.2,0L74.121,60.564A7,7,0,0,1,68.022,71H11.978a7,7,0,0,1-6.1-10.436Z" transform="translate(213 697)" fill="#4f6563"/><path d="M63.455,10.35a7,7,0,0,1,12.089,0l57.305,98.12A7,7,0,0,1,126.805,119H12.195A7,7,0,0,1,6.15,108.47Z" transform="translate(184 732)" fill="#4f6563"/><path d="M74.879,11.033a7,7,0,0,1,12.242,0L156.232,135.6a7,7,0,0,1-6.121,10.4H11.889a7,7,0,0,1-6.121-10.4Z" transform="translate(172 778)" fill="#4f6563"/></g><g transform="translate(8.338 180.726)"><path d="M25.78,12.052a7,7,0,0,1,12.441,0L58.73,51.79A7,7,0,0,1,52.51,62H11.49A7,7,0,0,1,5.27,51.79Z" transform="translate(203.662 697.274)" fill="#1e2d32"/><path d="M53.5,0,107,103H0Z" transform="translate(182.662 727.274)" fill="#1e2d32"/><path d="M63.5,0,127,127H0Z" transform="translate(171.662 767.274)" fill="#1e2d32"/></g><g transform="translate(-90.004 219.802)"><path d="M21.892,10.906a7,7,0,0,1,12.215,0L50.165,39.58A7,7,0,0,1,44.057,50H11.943A7,7,0,0,1,5.835,39.58Z" transform="translate(201.003 697.198)" fill="#ca9954"/><path d="M42.991,10.056a7,7,0,0,1,12.018,0L91.671,71.409A7,7,0,0,1,85.663,82H12.337A7,7,0,0,1,6.329,71.409Z" transform="translate(180.003 721.198)" fill="#ca9954"/><path d="M50.377,11.055a7,7,0,0,1,12.247,0l44.62,80.554A7,7,0,0,1,101.12,102H11.88A7,7,0,0,1,5.756,91.608Z" transform="translate(172.003 753.198)" fill="#ca9954"/></g><g transform="translate(-57.111 166.552)"><path d="M31.414,10.712a7,7,0,0,1,12.172,0l25.472,44.83A7,7,0,0,1,62.972,66H12.028A7,7,0,0,1,5.942,55.542Z" transform="translate(210.111 697.448)" fill="#4f6563"/><path d="M58.974,10.2a7,7,0,0,1,12.053,0l52.733,89.24A7,7,0,0,1,117.733,110H12.267A7,7,0,0,1,6.241,99.439Z" transform="translate(183.111 729.448)" fill="#4f6563"/><path d="M69.38,11.024a7,7,0,0,1,12.24,0L145.228,125.6a7,7,0,0,1-6.12,10.4H11.892a7,7,0,0,1-6.12-10.4Z" transform="translate(172.111 772.448)" fill="#4f6563"/></g><g transform="translate(271.338 174.881)"><path d="M29.922,10.636a7,7,0,0,1,12.155,0L66.015,52.527A7,7,0,0,1,59.938,63H12.062A7,7,0,0,1,5.985,52.527Z" transform="translate(208.662 697.119)" fill="#1e2d32"/><path d="M62,0l62,107H0Z" transform="translate(183.662 728.119)" fill="#1e2d32"/><path d="M72.5,0,145,131H0Z" transform="translate(171.662 769.119)" fill="#1e2d32"/></g><g transform="translate(135.338 166.881)"><path d="M31.414,10.712a7,7,0,0,1,12.172,0l25.472,44.83A7,7,0,0,1,62.972,66H12.028A7,7,0,0,1,5.942,55.542Z" transform="translate(209.662 697.119)" fill="#1e2d32"/><path d="M64.5,0,129,111H0Z" transform="translate(183.662 729.119)" fill="#1e2d32"/><path d="M75.5,0,151,136H0Z" transform="translate(171.662 772.119)" fill="#1e2d32"/></g><g transform="translate(87.389 192.181)"><path d="M26.891,10.923a7,7,0,0,1,12.219,0l21.064,37.66A7,7,0,0,1,54.064,59H11.936A7,7,0,0,1,5.826,48.583Z" transform="translate(205.611 696.819)" fill="#4f6563"/><path d="M50.436,10.519a7,7,0,0,1,12.129,0L106.949,87.5A7,7,0,0,1,100.884,98H12.116A7,7,0,0,1,6.051,87.5Z" transform="translate(182.611 724.819)" fill="#4f6563"/><path d="M59.878,11.037a7,7,0,0,1,12.243,0L126.235,108.6a7,7,0,0,1-6.122,10.4H11.887a7,7,0,0,1-6.122-10.4Z" transform="translate(172.611 763.819)" fill="#4f6563"/></g><g transform="translate(385.251 192.404)"><path d="M26.916,10.693a7,7,0,0,1,12.168,0L60.048,47.538A7,7,0,0,1,53.964,58H12.036A7,7,0,0,1,5.952,47.538Z" transform="translate(205.749 697.596)" fill="#4f6563"/><path d="M56.5,0,113,98H0Z" transform="translate(182.749 724.596)" fill="#4f6563"/><path d="M66.5,0,133,120H0Z" transform="translate(171.749 762.596)" fill="#4f6563"/></g><g transform="translate(51.996 219.802)"><path d="M21.892,10.906a7,7,0,0,1,12.215,0L50.165,39.58A7,7,0,0,1,44.057,50H11.943A7,7,0,0,1,5.835,39.58Z" transform="translate(201.003 697.198)" fill="#ca9954"/><path d="M42.991,10.056a7,7,0,0,1,12.018,0L91.671,71.409A7,7,0,0,1,85.663,82H12.337A7,7,0,0,1,6.329,71.409Z" transform="translate(180.003 721.198)" fill="#ca9954"/><path d="M50.377,11.055a7,7,0,0,1,12.247,0l44.62,80.554A7,7,0,0,1,101.12,102H11.88A7,7,0,0,1,5.756,91.608Z" transform="translate(172.003 753.198)" fill="#ca9954"/></g><g transform="translate(210.889 150.559)"><path d="M34.42,10.659a7,7,0,0,1,12.161,0L75.029,60.532A7,7,0,0,1,68.948,71h-56.9a7,7,0,0,1-6.08-10.468Z" transform="translate(213.111 697.441)" fill="#4f6563"/><path d="M63.443,10.459a7,7,0,0,1,12.115,0l57.357,99.033A7,7,0,0,1,126.857,120H12.143a7,7,0,0,1-6.057-10.508Z" transform="translate(184.111 731.441)" fill="#4f6563"/><path d="M74.879,11.033a7,7,0,0,1,12.242,0L156.232,135.6a7,7,0,0,1-6.121,10.4H11.889a7,7,0,0,1-6.121-10.4Z" transform="translate(172.111 778.441)" fill="#4f6563"/></g><g transform="translate(545.338 166.881)"><path d="M31.414,10.712a7,7,0,0,1,12.172,0l25.472,44.83A7,7,0,0,1,62.972,66H12.028A7,7,0,0,1,5.942,55.542Z" transform="translate(209.662 697.119)" fill="#1e2d32"/><path d="M58.448,10.416a7,7,0,0,1,12.1,0l52.336,90.067A7,7,0,0,1,116.836,111H12.164a7,7,0,0,1-6.052-10.517Z" transform="translate(183.662 729.119)" fill="#1e2d32"/><path d="M69.38,11.024a7,7,0,0,1,12.24,0L145.228,125.6a7,7,0,0,1-6.12,10.4H11.892a7,7,0,0,1-6.12-10.4Z" transform="translate(171.662 772.119)" fill="#1e2d32"/></g><g transform="translate(559.996 241.968)"><path d="M17.888,10.951a7,7,0,0,1,12.225,0L42.189,32.588A7,7,0,0,1,36.077,43H11.923A7,7,0,0,1,5.811,32.588Z" transform="translate(197.004 697.032)" fill="#ca9954"/><path d="M36,10a7,7,0,0,1,12,0L77.639,59.4a7,7,0,0,1-6,10.6H12.363a7,7,0,0,1-6-10.6Z" transform="translate(179.004 718.032)" fill="#ca9954"/><path d="M42.369,11.124a7,7,0,0,1,12.261,0l36.649,66.5A7,7,0,0,1,85.149,88h-73.3A7,7,0,0,1,5.72,77.621Z" transform="translate(172.004 745.032)" fill="#ca9954"/></g><g transform="translate(435.338 203.213)"><path d="M25.426,10.606a7,7,0,0,1,12.149,0L57,44.521A7,7,0,0,1,50.924,55H12.076A7,7,0,0,1,6,44.521Z" transform="translate(202.662 696.787)" fill="#1e2d32"/><path d="M47.449,10.406a7,7,0,0,1,12.1,0l41.332,71.075A7,7,0,0,1,94.832,92H12.168A7,7,0,0,1,6.117,81.481Z" transform="translate(181.662 723.787)" fill="#1e2d32"/><path d="M62.5,0,125,113H0Z" transform="translate(171.662 758.787)" fill="#1e2d32"/></g><g transform="translate(352.414 207.802)"><path d="M23.881,11.014a7,7,0,0,1,12.238,0L54.222,43.6A7,7,0,0,1,48.1,54H11.9A7,7,0,0,1,5.777,43.6Z" transform="translate(203.586 697.198)" fill="#ca9954"/><path d="M46.489,10.076a7,7,0,0,1,12.023,0L98.684,77.414A7,7,0,0,1,92.673,88H12.327A7,7,0,0,1,6.316,77.414Z" transform="translate(180.586 723.198)" fill="#ca9954"/><path d="M54.878,11.039a7,7,0,0,1,12.243,0l49.114,88.566A7,7,0,0,1,110.114,110H11.886A7,7,0,0,1,5.764,99.605Z" transform="translate(171.586 757.198)" fill="#ca9954"/></g><g transform="translate(484.233 174.296)"><path d="M30.419,10.662a7,7,0,0,1,12.161,0L67.03,53.532A7,7,0,0,1,60.949,64h-48.9A7,7,0,0,1,5.97,53.532Z" transform="translate(208.768 697.704)" fill="#4f6563"/><path d="M55.943,10.453a7,7,0,0,1,12.113,0L117.91,96.491A7,7,0,0,1,111.854,107H12.146A7,7,0,0,1,6.09,96.491Z" transform="translate(183.768 727.704)" fill="#4f6563"/><path d="M66.874,11.077a7,7,0,0,1,12.251,0l61.13,110.536A7,7,0,0,1,134.13,132H11.87a7,7,0,0,1-6.126-10.388Z" transform="translate(171.768 768.704)" fill="#4f6563"/></g></g></g></svg>