<svg xmlns="http://www.w3.org/2000/svg" xmlns:xlink="http://www.w3.org/1999/xlink" width="2665" height="886" viewBox="0 0 2665 886"><defs><clipPath id="b"><rect width="2665" height="886"/></clipPath></defs><g id="a" clip-path="url(#b)"><rect width="2665" height="886" fill="rgba(255,255,255,0)"/><rect width="2665" height="276" transform="translate(0 610)" fill="#fcf4ed"/><g transform="translate(186 -536)"><ellipse cx="669.5" cy="276" rx="669.5" ry="276" transform="translate(-186 870)" fill="#a9bbcb"/><ellipse cx="1106.5" cy="205" rx="1106.5" ry="205" transform="translate(-94 905)" fill="#a9bbcb"/><ellipse cx="480" cy="198.5" rx="480" ry="198.5" transform="translate(1539.601 888) rotate(5)" fill="#a9bbcb"/></g><g transform="translate(169 -648.318)"><path d="M223,0,447,448H0Z" transform="translate(513 743.318)" fill="#a7aab5"/><path d="M433.5,0,867,500H0Z" transform="translate(12 691.318)" fill="#9395a0"/><path d="M313,0,626,543H0Z" transform="translate(-31 648.318)" fill="#9395a0"/><path d="M67.5,0,135,77H0Z" transform="translate(378 691.318)" fill="#fff"/><path d="M35.687,0,71.374,21.631H0Z" transform="translate(449.402 789.388) rotate(180)" fill="#fff"/><path d="M41.571.178,83.85,48.955.214,48.216Z" transform="translate(518.004 816.715) rotate(173)" fill="#fff"/><path d="M0,0,75.877,2.812l2.171,57.806L2.171,57.806Z" transform="translate(414.667 772.376) rotate(-40)" fill="#fff"/><path d="M51,0l51,88H0Z" transform="translate(231 648.318)" fill="#fff"/><path d="M22,0,44,24H0Z" transform="translate(275 760.318) rotate(-180)" fill="#fff"/><path d="M18.5,0,37,35H0Z" transform="translate(333 771.318) rotate(-180)" fill="#fff"/><path d="M0,0,67.525,2.077l1.246,38.834L1.246,38.834Z" transform="matrix(0.883, -0.469, 0.469, 0.883, 252.528, 731.831)" fill="#fff"/><path d="M33,0,66,66H0Z" transform="translate(703 743.318)" fill="#fff"/><path d="M17,0,34,22H0Z" transform="translate(769 831.318) rotate(180)" fill="#fff"/><path d="M0,0,29.676.883l1.036,36.576L1.036,36.576Z" transform="translate(702.75 810.153) rotate(-65)" fill="#fff"/><path d="M10,0,20,14H0Z" transform="translate(723 823.318) rotate(180)" fill="#fff"/></g><g transform="translate(1567 -629.571)"><path d="M313,0,626,527H0L217.325,161.088Z" transform="translate(-31 647.571)" fill="#a7aab5"/><path d="M433.5,0,867,485H0Z" transform="translate(12 689.571)" fill="#9395a0"/><path d="M223,0,447,434H0Z" transform="translate(513 740.571)" fill="#9395a0"/><path d="M68.5,0,137,76H0Z" transform="translate(377 689.571)" fill="#fff"/><path d="M35.687,0,71.374,20.962H0Z" transform="translate(449.402 786.037) rotate(180)" fill="#fff"/><path d="M40.383-.8,82.825,46.654l-83.6-1.029Z" transform="translate(516.706 810.578) rotate(173)" fill="#fff"/><path d="M0,0,74.951,3.916l3.023,56.791L3.023,56.791Z" transform="translate(414.667 768.581) rotate(-40)" fill="#fff"/><path d="M51,0l51,86H0Z" transform="translate(231 647.571)" fill="#fff"/><path d="M22,0,44,23H0Z" transform="translate(275 756.571) rotate(-180)" fill="#fff"/><path d="M18.5,0,37,34H0Z" transform="translate(333 767.571) rotate(-180)" fill="#fff"/><path d="M0,0,67.091,2.892l1.735,37.914L1.735,37.914Z" transform="matrix(0.883, -0.469, 0.469, 0.883, 252.528, 729.29)" fill="#fff"/><path d="M33,0,66,64H0Z" transform="translate(703 740.571)" fill="#fff"/><path d="M17,0,34,21H0Z" transform="translate(769 825.471) rotate(180)" fill="#fff"/><path d="M0,0,28.933,1.229l1.443,36.387L1.443,36.387Z" transform="translate(702.932 805.002) rotate(-65)" fill="#fff"/><path d="M10,0,20,14H0Z" transform="translate(723 818.571) rotate(180)" fill="#fff"/></g><g transform="translate(887 -556.641)"><path d="M433.5,0,867,417H0Z" transform="translate(12 683.641)" fill="#a7aab5"/><path d="M313,0,626,453H0Z" transform="translate(-31 647.641)" fill="#9395a0"/><path d="M223,0,447,373H0Z" transform="translate(513 727.641)" fill="#9395a0"/><path d="M67.5,0,135,65H0Z" transform="translate(378 683.641)" fill="#fff"/><path d="M35.687,0,71.374,18.021H0Z" transform="translate(449.402 766.62) rotate(180)" fill="#fff"/><path d="M40.018-.29,83.176,41.321-.268,39.015Z" transform="translate(516.405 787.461) rotate(173)" fill="#fff"/><path d="M0,0,70.877,8.772,77.648,61.1,6.771,52.324Z" transform="translate(414.667 751.613) rotate(-40)" fill="#fff"/><path d="M51,0l51,74H0Z" transform="translate(231 647.641)" fill="#fff"/><path d="M22,0,44,20H0Z" transform="translate(275 741.641) rotate(-180)" fill="#fff"/><path d="M18.5,0,37,29H0Z" transform="translate(333 750.641) rotate(-180)" fill="#fff"/><path d="M0,0,65.185,6.477l3.886,33.868L3.886,33.868Z" transform="matrix(0.883, -0.469, 0.469, 0.883, 252.528, 717.834)" fill="#fff"/><path d="M33,0,66,55H0Z" transform="translate(703 727.641)" fill="#fff"/><path d="M17,0,34,18H0Z" transform="translate(769 800.641) rotate(180)" fill="#fff"/><path d="M0,0,25.665,2.753,28.9,38.306,3.232,35.552Z" transform="translate(702.932 782.924) rotate(-65)" fill="#fff"/><path d="M10,0,20,12H0Z" transform="translate(723 794.641) rotate(180)" fill="#fff"/></g><g transform="translate(63 -530)"><g transform="translate(-135.111 192.881)"><path d="M33,0,66,58H0Z" transform="translate(205.111 697.119)" fill="#1e2d32"/><path d="M56.5,0,113,97H0Z" transform="translate(182.111 725.119)" fill="#1e2d32"/><path d="M66,0l66,119H0Z" transform="translate(172.111 763.119)" fill="#1e2d32"/></g><g transform="translate(-216 151)"><path d="M40,0,80,71H0Z" transform="translate(213 697)" fill="#4f6563"/><path d="M69.5,0,139,119H0Z" transform="translate(184 732)" fill="#4f6563"/><path d="M81,0l81,146H0Z" transform="translate(172 778)" fill="#4f6563"/></g><g transform="translate(8.338 180.726)"><path d="M32,0,64,62H0Z" transform="translate(203.662 697.274)" fill="#1e2d32"/><path d="M53.5,0,107,103H0Z" transform="translate(182.662 727.274)" fill="#1e2d32"/><path d="M63.5,0,127,127H0Z" transform="translate(171.662 767.274)" fill="#1e2d32"/></g><g transform="translate(-90.004 219.802)"><path d="M28,0,56,50H0Z" transform="translate(201.003 697.198)" fill="#ca9954"/><path d="M49,0,98,82H0Z" transform="translate(180.003 721.198)" fill="#ca9954"/><path d="M56.5,0,113,102H0Z" transform="translate(172.003 753.198)" fill="#ca9954"/></g><g transform="translate(-57.111 166.552)"><path d="M37.5,0,75,66H0Z" transform="translate(210.111 697.448)" fill="#4f6563"/><path d="M65,0l65,110H0Z" transform="translate(183.111 729.448)" fill="#4f6563"/><path d="M75.5,0,151,136H0Z" transform="translate(172.111 772.448)" fill="#4f6563"/></g><g transform="translate(271.338 174.881)"><path d="M36,0,72,63H0Z" transform="translate(208.662 697.119)" fill="#1e2d32"/><path d="M62,0l62,107H0Z" transform="translate(183.662 728.119)" fill="#1e2d32"/><path d="M72.5,0,145,131H0Z" transform="translate(171.662 769.119)" fill="#1e2d32"/></g><g transform="translate(135.338 166.881)"><path d="M37.5,0,75,66H0Z" transform="translate(209.662 697.119)" fill="#1e2d32"/><path d="M64.5,0,129,111H0Z" transform="translate(183.662 729.119)" fill="#1e2d32"/><path d="M75.5,0,151,136H0Z" transform="translate(171.662 772.119)" fill="#1e2d32"/></g><g transform="translate(87.389 192.181)"><path d="M33,0,66,59H0Z" transform="translate(205.611 696.819)" fill="#4f6563"/><path d="M56.5,0,113,98H0Z" transform="translate(182.611 724.819)" fill="#4f6563"/><path d="M66,0l66,119H0Z" transform="translate(172.611 763.819)" fill="#4f6563"/></g><g transform="translate(385.251 192.404)"><path d="M33,0,66,58H0Z" transform="translate(205.749 697.596)" fill="#4f6563"/><path d="M56.5,0,113,98H0Z" transform="translate(182.749 724.596)" fill="#4f6563"/><path d="M66.5,0,133,120H0Z" transform="translate(171.749 762.596)" fill="#4f6563"/></g><g transform="translate(51.996 219.802)"><path d="M28,0,56,50H0Z" transform="translate(201.003 697.198)" fill="#ca9954"/><path d="M49,0,98,82H0Z" transform="translate(180.003 721.198)" fill="#ca9954"/><path d="M56.5,0,113,102H0Z" transform="translate(172.003 753.198)" fill="#ca9954"/></g><g transform="translate(210.889 150.559)"><path d="M40.5,0,81,71H0Z" transform="translate(213.111 697.441)" fill="#4f6563"/><path d="M69.5,0,139,120H0Z" transform="translate(184.111 731.441)" fill="#4f6563"/><path d="M81,0l81,146H0Z" transform="translate(172.111 778.441)" fill="#4f6563"/></g><g transform="translate(545.338 166.881)"><path d="M37.5,0,75,66H0Z" transform="translate(209.662 697.119)" fill="#1e2d32"/><path d="M64.5,0,129,111H0Z" transform="translate(183.662 729.119)" fill="#1e2d32"/><path d="M75.5,0,151,136H0Z" transform="translate(171.662 772.119)" fill="#1e2d32"/></g><g transform="translate(559.996 241.968)"><path d="M24,0,48,43H0Z" transform="translate(197.004 697.032)" fill="#ca9954"/><path d="M42,0,84,70H0Z" transform="translate(179.004 718.032)" fill="#ca9954"/><path d="M48.5,0,97,88H0Z" transform="translate(172.004 745.032)" fill="#ca9954"/></g><g transform="translate(435.338 203.213)"><path d="M31.5,0,63,55H0Z" transform="translate(202.662 696.787)" fill="#1e2d32"/><path d="M53.5,0,107,92H0Z" transform="translate(181.662 723.787)" fill="#1e2d32"/><path d="M62.5,0,125,113H0Z" transform="translate(171.662 758.787)" fill="#1e2d32"/></g><g transform="translate(352.414 207.802)"><path d="M30,0,60,54H0Z" transform="translate(203.586 697.198)" fill="#ca9954"/><path d="M52.5,0,105,88H0Z" transform="translate(180.586 723.198)" fill="#ca9954"/><path d="M61,0l61,110H0Z" transform="translate(171.586 757.198)" fill="#ca9954"/></g><g transform="translate(484.233 174.296)"><path d="M36.5,0,73,64H0Z" transform="translate(208.768 697.704)" fill="#4f6563"/><path d="M62,0l62,107H0Z" transform="translate(183.768 727.704)" fill="#4f6563"/><path d="M73,0l73,132H0Z" transform="translate(171.768 768.704)" fill="#4f6563"/></g><g transform="translate(851)"><g transform="translate(-135.111 192.881)"><path d="M33,0,66,58H0Z" transform="translate(205.111 697.119)" fill="#1e2d32"/><path d="M56.5,0,113,97H0Z" transform="translate(182.111 725.119)" fill="#1e2d32"/><path d="M66,0l66,119H0Z" transform="translate(172.111 763.119)" fill="#1e2d32"/></g><g transform="translate(-216 151)"><path d="M40,0,80,71H0Z" transform="translate(213 697)" fill="#4f6563"/><path d="M69.5,0,139,119H0Z" transform="translate(184 732)" fill="#4f6563"/><path d="M81,0l81,146H0Z" transform="translate(172 778)" fill="#4f6563"/></g><g transform="translate(8.338 180.726)"><path d="M32,0,64,62H0Z" transform="translate(203.662 697.274)" fill="#1e2d32"/><path d="M53.5,0,107,103H0Z" transform="translate(182.662 727.274)" fill="#1e2d32"/><path d="M63.5,0,127,127H0Z" transform="translate(171.662 767.274)" fill="#1e2d32"/></g><g transform="translate(-90.004 219.802)"><path d="M28,0,56,50H0Z" transform="translate(201.003 697.198)" fill="#ca9954"/><path d="M49,0,98,82H0Z" transform="translate(180.003 721.198)" fill="#ca9954"/><path d="M56.5,0,113,102H0Z" transform="translate(172.003 753.198)" fill="#ca9954"/></g><g transform="translate(-57.111 166.552)"><path d="M37.5,0,75,66H0Z" transform="translate(210.111 697.448)" fill="#4f6563"/><path d="M65,0l65,110H0Z" transform="translate(183.111 729.448)" fill="#4f6563"/><path d="M75.5,0,151,136H0Z" transform="translate(172.111 772.448)" fill="#4f6563"/></g><g transform="translate(271.338 174.881)"><path d="M36,0,72,63H0Z" transform="translate(208.662 697.119)" fill="#1e2d32"/><path d="M62,0l62,107H0Z" transform="translate(183.662 728.119)" fill="#1e2d32"/><path d="M72.5,0,145,131H0Z" transform="translate(171.662 769.119)" fill="#1e2d32"/></g><g transform="translate(135.338 166.881)"><path d="M37.5,0,75,66H0Z" transform="translate(209.662 697.119)" fill="#1e2d32"/><path d="M64.5,0,129,111H0Z" transform="translate(183.662 729.119)" fill="#1e2d32"/><path d="M75.5,0,151,136H0Z" transform="translate(171.662 772.119)" fill="#1e2d32"/></g><g transform="translate(87.389 192.181)"><path d="M33,0,66,59H0Z" transform="translate(205.611 696.819)" fill="#4f6563"/><path d="M56.5,0,113,98H0Z" transform="translate(182.611 724.819)" fill="#4f6563"/><path d="M66,0l66,119H0Z" transform="translate(172.611 763.819)" fill="#4f6563"/></g><g transform="translate(385.251 192.404)"><path d="M33,0,66,58H0Z" transform="translate(205.749 697.596)" fill="#4f6563"/><path d="M56.5,0,113,98H0Z" transform="translate(182.749 724.596)" fill="#4f6563"/><path d="M66.5,0,133,120H0Z" transform="translate(171.749 762.596)" fill="#4f6563"/></g><g transform="translate(51.996 219.802)"><path d="M28,0,56,50H0Z" transform="translate(201.003 697.198)" fill="#ca9954"/><path d="M49,0,98,82H0Z" transform="translate(180.003 721.198)" fill="#ca9954"/><path d="M56.5,0,113,102H0Z" transform="translate(172.003 753.198)" fill="#ca9954"/></g><g transform="translate(210.889 150.559)"><path d="M40.5,0,81,71H0Z" transform="translate(213.111 697.441)" fill="#4f6563"/><path d="M69.5,0,139,120H0Z" transform="translate(184.111 731.441)" fill="#4f6563"/><path d="M81,0l81,146H0Z" transform="translate(172.111 778.441)" fill="#4f6563"/></g><g transform="translate(545.338 166.881)"><path d="M37.5,0,75,66H0Z" transform="translate(209.662 697.119)" fill="#1e2d32"/><path d="M64.5,0,129,111H0Z" transform="translate(183.662 729.119)" fill="#1e2d32"/><path d="M75.5,0,151,136H0Z" transform="translate(171.662 772.119)" fill="#1e2d32"/></g><g transform="translate(559.996 241.968)"><path d="M24,0,48,43H0Z" transform="translate(197.004 697.032)" fill="#ca9954"/><path d="M42,0,84,70H0Z" transform="translate(179.004 718.032)" fill="#ca9954"/><path d="M48.5,0,97,88H0Z" transform="translate(172.004 745.032)" fill="#ca9954"/></g><g transform="translate(435.338 203.213)"><path d="M31.5,0,63,55H0Z" transform="translate(202.662 696.787)" fill="#1e2d32"/><path d="M53.5,0,107,92H0Z" transform="translate(181.662 723.787)" fill="#1e2d32"/><path d="M62.5,0,125,113H0Z" transform="translate(171.662 758.787)" fill="#1e2d32"/></g><g transform="translate(352.414 207.802)"><path d="M30,0,60,54H0Z" transform="translate(203.586 697.198)" fill="#ca9954"/><path d="M52.5,0,105,88H0Z" transform="translate(180.586 723.198)" fill="#ca9954"/><path d="M61,0l61,110H0Z" transform="translate(171.586 757.198)" fill="#ca9954"/></g><g transform="translate(484.233 174.296)"><path d="M36.5,0,73,64H0Z" transform="translate(208.768 697.704)" fill="#4f6563"/><path d="M62,0l62,107H0Z" transform="translate(183.768 727.704)" fill="#4f6563"/><path d="M73,0l73,132H0Z" transform="translate(171.768 768.704)" fill="#4f6563"/></g></g><g transform="translate(1695)"><g transform="translate(-135.111 192.881)"><path d="M33,0,66,58H0Z" transform="translate(205.111 697.119)" fill="#1e2d32"/><path d="M56.5,0,113,97H0Z" transform="translate(182.111 725.119)" fill="#1e2d32"/><path d="M66,0l66,119H0Z" transform="translate(172.111 763.119)" fill="#1e2d32"/></g><g transform="translate(-216 151)"><path d="M40,0,80,71H0Z" transform="translate(213 697)" fill="#4f6563"/><path d="M69.5,0,139,119H0Z" transform="translate(184 732)" fill="#4f6563"/><path d="M81,0l81,146H0Z" transform="translate(172 778)" fill="#4f6563"/></g><g transform="translate(8.338 180.726)"><path d="M32,0,64,62H0Z" transform="translate(203.662 697.274)" fill="#1e2d32"/><path d="M53.5,0,107,103H0Z" transform="translate(182.662 727.274)" fill="#1e2d32"/><path d="M63.5,0,127,127H0Z" transform="translate(171.662 767.274)" fill="#1e2d32"/></g><g transform="translate(-90.004 219.802)"><path d="M28,0,56,50H0Z" transform="translate(201.003 697.198)" fill="#ca9954"/><path d="M49,0,98,82H0Z" transform="translate(180.003 721.198)" fill="#ca9954"/><path d="M56.5,0,113,102H0Z" transform="translate(172.003 753.198)" fill="#ca9954"/></g><g transform="translate(-57.111 166.552)"><path d="M37.5,0,75,66H0Z" transform="translate(210.111 697.448)" fill="#4f6563"/><path d="M65,0l65,110H0Z" transform="translate(183.111 729.448)" fill="#4f6563"/><path d="M75.5,0,151,136H0Z" transform="translate(172.111 772.448)" fill="#4f6563"/></g><g transform="translate(271.338 174.881)"><path d="M36,0,72,63H0Z" transform="translate(208.662 697.119)" fill="#1e2d32"/><path d="M62,0l62,107H0Z" transform="translate(183.662 728.119)" fill="#1e2d32"/><path d="M72.5,0,145,131H0Z" transform="translate(171.662 769.119)" fill="#1e2d32"/></g><g transform="translate(135.338 166.881)"><path d="M37.5,0,75,66H0Z" transform="translate(209.662 697.119)" fill="#1e2d32"/><path d="M64.5,0,129,111H0Z" transform="translate(183.662 729.119)" fill="#1e2d32"/><path d="M75.5,0,151,136H0Z" transform="translate(171.662 772.119)" fill="#1e2d32"/></g><g transform="translate(87.389 193.181)"><path d="M33,0,66,59H0Z" transform="translate(205.611 696.819)" fill="#4f6563"/><path d="M56.5,0,113,98H0Z" transform="translate(182.611 724.819)" fill="#4f6563"/><path d="M66,0l66,119H0Z" transform="translate(172.611 762.819)" fill="#4f6563"/></g><g transform="translate(385.251 192.404)"><path d="M33,0,66,58H0Z" transform="translate(205.749 697.596)" fill="#4f6563"/><path d="M56.5,0,113,98H0Z" transform="translate(182.749 724.596)" fill="#4f6563"/><path d="M66.5,0,133,120H0Z" transform="translate(171.749 762.596)" fill="#4f6563"/></g><g transform="translate(51.996 219.802)"><path d="M28,0,56,50H0Z" transform="translate(201.003 697.198)" fill="#ca9954"/><path d="M49,0,98,82H0Z" transform="translate(180.003 721.198)" fill="#ca9954"/><path d="M56.5,0,113,102H0Z" transform="translate(172.003 753.198)" fill="#ca9954"/></g><g transform="translate(210.889 150.559)"><path d="M40.5,0,81,71H0Z" transform="translate(213.111 697.441)" fill="#4f6563"/><path d="M69.5,0,139,120H0Z" transform="translate(184.111 731.441)" fill="#4f6563"/><path d="M81,0l81,146H0Z" transform="translate(172.111 778.441)" fill="#4f6563"/></g><g transform="translate(545.338 166.881)"><path d="M37.5,0,75,66H0Z" transform="translate(209.662 697.119)" fill="#1e2d32"/><path d="M64.5,0,129,111H0Z" transform="translate(183.662 729.119)" fill="#1e2d32"/><path d="M75.5,0,151,136H0Z" transform="translate(171.662 772.119)" fill="#1e2d32"/></g><g transform="translate(559.996 241.968)"><path d="M24,0,48,43H0Z" transform="translate(197.004 697.032)" fill="#ca9954"/><path d="M42,0,84,70H0Z" transform="translate(179.004 718.032)" fill="#ca9954"/><path d="M48.5,0,97,88H0Z" transform="translate(172.004 745.032)" fill="#ca9954"/></g><g transform="translate(435.338 203.213)"><path d="M31.5,0,63,55H0Z" transform="translate(202.662 696.787)" fill="#1e2d32"/><path d="M53.5,0,107,92H0Z" transform="translate(181.662 723.787)" fill="#1e2d32"/><path d="M62.5,0,125,113H0Z" transform="translate(171.662 758.787)" fill="#1e2d32"/></g><g transform="translate(352.414 207.802)"><path d="M30,0,60,54H0Z" transform="translate(203.586 697.198)" fill="#ca9954"/><path d="M52.5,0,105,88H0Z" transform="translate(180.586 723.198)" fill="#ca9954"/><path d="M61,0l61,110H0Z" transform="translate(171.586 757.198)" fill="#ca9954"/></g><g transform="translate(484.233 174.296)"><path d="M36.5,0,73,64H0Z" transform="translate(208.768 697.704)" fill="#4f6563"/><path d="M62,0l62,107H0Z" transform="translate(183.768 727.704)" fill="#4f6563"/><path d="M73,0l73,132H0Z" transform="translate(171.768 768.704)" fill="#4f6563"/></g></g></g></g></svg>