<svg xmlns="http://www.w3.org/2000/svg" xmlns:xlink="http://www.w3.org/1999/xlink" width="2665" height="886" viewBox="0 0 2665 886"><defs><style>.a{clip-path:url(#b);}.b{fill:#a7aab5;}.c{fill:#fff;}.d{fill:#fff1e5;}.e{fill:#a9bbcb;}.f{fill:#9395a0;}.g{fill:#1e2d32;}.h{fill:#4f6563;}.i{fill:#ca9954;}.j{opacity:0.12;}.j,.k{isolation:isolate;}.k{opacity:0.336;}.l{fill:rgba(255,255,255,0);}</style><clipPath id="b"><rect width="2665" height="886"/></clipPath></defs><g id="a" class="a"><rect class="l" width="2665" height="886"/><g transform="translate(-3243 -1775)"><path class="b" d="M306.935,10.521a7,7,0,0,1,12.129,0L619.95,532.5a7,7,0,0,1-6.065,10.5H12.115A7,7,0,0,1,6.05,532.5Z" transform="translate(4719 1775)"/><path class="c" d="M45.939,10.49a7,7,0,0,1,12.122,0L97.932,79.5A7,7,0,0,1,91.871,90H12.129A7,7,0,0,1,6.068,79.5Z" transform="translate(4980 1774)"/><path class="c" d="M13.739,12.522a7,7,0,0,1,12.522,0L34.935,29.87A7,7,0,0,1,28.674,40H11.326A7,7,0,0,1,5.065,29.87Z" transform="translate(5021 1890.99) rotate(-180)"/><path class="c" d="M18.293,11.908a7,7,0,0,1,12.415,0L43.664,36.764A7,7,0,0,1,37.457,47H11.543A7,7,0,0,1,5.336,36.764Z" transform="translate(5089.3 1908) rotate(-180)"/><rect class="c" width="70" height="59" rx="7" transform="translate(4996.478 1852.913) rotate(-30)"/></g><path class="d" d="M0,0H2665V276H0Z" transform="translate(0 610)"/><g transform="translate(186 -536)"><ellipse class="e" cx="669.5" cy="276" rx="669.5" ry="276" transform="translate(-186 870)"/><ellipse class="e" cx="1106.5" cy="205" rx="1106.5" ry="205" transform="translate(-94 905)"/><ellipse class="e" cx="480" cy="198.5" rx="480" ry="198.5" transform="translate(1539.601 888) rotate(5)"/></g><g transform="translate(-3685.726 -1702.879)"><path class="b" d="M373,6.818a7.573,7.573,0,0,1,11.463,0L748.884,461.623A7,7,0,0,1,743.421,473H14.579a7,7,0,0,1-5.463-11.377Z" transform="translate(4719.161 1774.879)"/><path class="c" d="M52,6.981a7,7,0,0,1,11,0l43.076,54.687A7,7,0,0,1,100.576,73H14.424a7,7,0,0,1-5.5-11.331Z" transform="translate(5040.161 1772.879)"/><path class="c" d="M28.156,12.522a7,7,0,0,1,12.522,0L63.769,58.7a7,7,0,0,1-6.261,10.131H11.326A7,7,0,0,1,5.065,58.7Z" transform="translate(5182.756 1888.321) rotate(150)"/><path class="c" d="M15.129,11.908a7,7,0,0,1,12.415,0l9.793,18.787a7,7,0,0,1-6.207,10.236H11.543A7,7,0,0,1,5.336,30.695Z" transform="translate(5065.112 1898.825) rotate(-180)"/><rect class="c" width="78.96" height="73.381" rx="7" transform="matrix(0.643, -0.766, 0.766, 0.643, 5025.922, 1862.696)"/><path class="c" d="M15.129,11.908a7,7,0,0,1,12.415,0l9.793,18.787a7,7,0,0,1-6.207,10.236H11.543A7,7,0,0,1,5.336,30.695Z" transform="translate(5133.112 1909.825) rotate(-180)"/><path class="c" d="M15.129,11.908a7,7,0,0,1,12.415,0l9.793,18.787a7,7,0,0,1-6.207,10.236H11.543A7,7,0,0,1,5.336,30.695Z" transform="matrix(-0.616, -0.788, 0.788, -0.616, 5135.785, 1887.772)"/></g><g transform="translate(-3889 -1759)"><path class="f" d="M306.981,10.133a7,7,0,0,1,12.037,0l300.7,506.292A7,7,0,0,1,613.7,527H12.3a7,7,0,0,1-6.019-10.575Z" transform="translate(4719 1775)"/><path class="c" d="M45.991,10.053a7,7,0,0,1,12.017,0L97.67,76.409A7,7,0,0,1,91.661,87H12.339A7,7,0,0,1,6.33,76.409Z" transform="translate(4980 1774)"/><path class="c" d="M13.777,12.079a7,7,0,0,1,12.445,0l8.519,16.537a7,7,0,0,1-6.223,10.206H11.481A7,7,0,0,1,5.258,28.616Z" transform="translate(5021 1886.602) rotate(-180)"/><path class="c" d="M18.333,11.482a7,7,0,0,1,12.334,0L43.461,35.3a7,7,0,0,1-6.167,10.312H11.706A7,7,0,0,1,5.539,35.3Z" transform="translate(5089.3 1904.081) rotate(-180)"/><path class="c" d="M6.948.089,62.536.8a7.117,7.117,0,0,1,7.038,6.935l.574,44.006A6.686,6.686,0,0,1,63.289,58.5L7.7,57.785A7.117,7.117,0,0,1,.663,50.851L.089,6.845A6.686,6.686,0,0,1,6.948.089Z" transform="translate(4996.478 1850.617) rotate(-30)"/></g><g transform="translate(-3053.726 -1702.879)"><path class="b" d="M373,6.818a7.573,7.573,0,0,1,11.463,0L748.884,461.623A7,7,0,0,1,743.421,473H14.579a7,7,0,0,1-5.463-11.377Z" transform="translate(4719.161 1774.879)"/><path class="c" d="M52,6.981a7,7,0,0,1,11,0l43.076,54.687A7,7,0,0,1,100.576,73H14.424a7,7,0,0,1-5.5-11.331Z" transform="translate(5040.161 1772.879)"/><path class="c" d="M28.156,12.522a7,7,0,0,1,12.522,0L63.769,58.7a7,7,0,0,1-6.261,10.131H11.326A7,7,0,0,1,5.065,58.7Z" transform="translate(5182.756 1888.321) rotate(150)"/><path class="c" d="M15.129,11.908a7,7,0,0,1,12.415,0l9.793,18.787a7,7,0,0,1-6.207,10.236H11.543A7,7,0,0,1,5.336,30.695Z" transform="translate(5065.112 1898.825) rotate(-180)"/><rect class="c" width="78.96" height="73.381" rx="7" transform="matrix(0.643, -0.766, 0.766, 0.643, 5025.922, 1862.696)"/><path class="c" d="M15.129,11.908a7,7,0,0,1,12.415,0l9.793,18.787a7,7,0,0,1-6.207,10.236H11.543A7,7,0,0,1,5.336,30.695Z" transform="translate(5133.112 1909.825) rotate(-180)"/><path class="c" d="M15.129,11.908a7,7,0,0,1,12.415,0l9.793,18.787a7,7,0,0,1-6.207,10.236H11.543A7,7,0,0,1,5.336,30.695Z" transform="matrix(-0.616, -0.788, 0.788, -0.616, 5135.785, 1887.772)"/></g><g transform="translate(-2855.726 -1754.879)"><path class="f" d="M373,7.108a7.093,7.093,0,0,1,11.463,0L748.884,512.361c3.672,5.091.409,12.639-5.463,12.639H14.579c-5.872,0-9.134-7.548-5.463-12.639Z" transform="translate(4719.161 1774.879)"/><path class="c" d="M47.751,8.274a7,7,0,0,1,11.5,0L99.361,66.006A7,7,0,0,1,93.613,77H13.387A7,7,0,0,1,7.639,66.006Z" transform="translate(5044.161 1770.879)"/><path class="c" d="M14.3,19.252a7,7,0,0,1,13.239,0L38.645,51.558a7,7,0,0,1-6.62,9.276H9.809a7,7,0,0,1-6.62-9.276Z" transform="translate(5161.412 1892.488) rotate(166)"/><path class="c" d="M28.128,11.921a7,7,0,0,1,12.417,0L63.343,55.7a7,7,0,0,1-6.209,10.233h-45.6A7,7,0,0,1,5.329,55.7Z" transform="translate(5133.112 1905.009) rotate(-180)"/><path class="c" d="M28.759,10.629a7,7,0,0,1,12.154,0L63.684,50.456a7,7,0,0,1-6.077,10.474H12.065A7,7,0,0,1,5.989,50.456Z" transform="matrix(-0.996, -0.087, 0.087, -0.996, 5109.254, 1900.86)"/><path class="c" d="M16.265,10.583a7,7,0,0,1,12.143,0l10.25,17.865a7,7,0,0,1-6.072,10.484h-20.5A7,7,0,0,1,6.015,28.447Z" transform="matrix(-0.848, -0.53, 0.53, -0.848, 5066.604, 1887.771)"/></g><g transform="translate(-4428.726 -1702.879)"><path class="b" d="M373,6.818a7.573,7.573,0,0,1,11.463,0L748.884,461.623A7,7,0,0,1,743.421,473H14.579a7,7,0,0,1-5.463-11.377Z" transform="translate(4719.161 1774.879)"/><path class="c" d="M52,6.981a7,7,0,0,1,11,0l43.076,54.687A7,7,0,0,1,100.576,73H14.424a7,7,0,0,1-5.5-11.331Z" transform="translate(5040.161 1772.879)"/><path class="c" d="M28.156,12.522a7,7,0,0,1,12.522,0L63.769,58.7a7,7,0,0,1-6.261,10.131H11.326A7,7,0,0,1,5.065,58.7Z" transform="translate(5182.756 1888.321) rotate(150)"/><path class="c" d="M15.129,11.908a7,7,0,0,1,12.415,0l9.793,18.787a7,7,0,0,1-6.207,10.236H11.543A7,7,0,0,1,5.336,30.695Z" transform="translate(5065.112 1898.825) rotate(-180)"/><rect class="c" width="78.96" height="73.381" rx="7" transform="matrix(0.643, -0.766, 0.766, 0.643, 5025.922, 1862.696)"/><path class="c" d="M15.129,11.908a7,7,0,0,1,12.415,0l9.793,18.787a7,7,0,0,1-6.207,10.236H11.543A7,7,0,0,1,5.336,30.695Z" transform="translate(5133.112 1909.825) rotate(-180)"/><path class="c" d="M15.129,11.908a7,7,0,0,1,12.415,0l9.793,18.787a7,7,0,0,1-6.207,10.236H11.543A7,7,0,0,1,5.336,30.695Z" transform="matrix(-0.616, -0.788, 0.788, -0.616, 5135.785, 1887.772)"/></g><g transform="translate(-4186.726 -1719.48)"><path class="f" d="M373,6.914a7.4,7.4,0,0,1,11.463,0L748.884,478.356c3.672,4.75.409,11.793-5.463,11.793H14.579c-5.872,0-9.134-7.043-5.463-11.793Z" transform="translate(4719.161 1774.331)"/><path class="c" d="M47.886,7.54a7,7,0,0,1,11.229,0l39.56,53.127A7,7,0,0,1,93.06,71.847H13.94A7,7,0,0,1,8.326,60.667Z" transform="translate(5044.161 1770.879)"/><path class="c" d="M11.523,4.607c2.058-5.868,10.931-5.728,13.187.208L36.283,35.26c1.628,4.283-1.661,8.663-6.448,8.588L7.706,43.5C2.919,43.424-.519,38.937.966,34.7Z" transform="translate(5155.177 1871.83) rotate(166)"/><path class="c" d="M28.224,10.951a7,7,0,0,1,12.225,0L62.861,51.107a7,7,0,0,1-6.112,10.412H11.924A7,7,0,0,1,5.811,51.107Z" transform="translate(5133.112 1896.034) rotate(-180)"/><path class="c" d="M23.672,3.154a7.25,7.25,0,0,1,12.148-.071l22.528,37.05c2.64,4.341-.762,9.783-6.135,9.814l-45.518.265c-5.373.031-8.707-5.371-6.013-9.743Z" transform="matrix(-0.996, -0.087, 0.087, -0.996, 5104.837, 1885.148)"/><path class="c" d="M10.872,3.011c2.78-4.544,9.417-4.747,11.915-.365l9.52,16.7c2.487,4.362-.994,10-6.273,10.162L5.92,30.12a6.321,6.321,0,0,1-5.642-9.8Z" transform="matrix(-0.848, -0.53, 0.53, -0.848, 5066.044, 1871.847)"/></g><g transform="translate(-4643 -1775)"><path class="f" d="M306.935,10.521a7,7,0,0,1,12.129,0L619.95,532.5a7,7,0,0,1-6.065,10.5H12.115A7,7,0,0,1,6.05,532.5Z" transform="translate(4719 1775)"/><path class="c" d="M45.939,10.49a7,7,0,0,1,12.122,0L97.932,79.5A7,7,0,0,1,91.871,90H12.129A7,7,0,0,1,6.068,79.5Z" transform="translate(4980 1774)"/><path class="c" d="M13.739,12.522a7,7,0,0,1,12.522,0L34.935,29.87A7,7,0,0,1,28.674,40H11.326A7,7,0,0,1,5.065,29.87Z" transform="translate(5022 1891.99) rotate(-180)"/><path class="c" d="M18.293,11.908a7,7,0,0,1,12.415,0L43.664,36.764A7,7,0,0,1,37.457,47H11.543A7,7,0,0,1,5.336,36.764Z" transform="translate(5089.3 1908) rotate(-180)"/><rect class="c" width="70" height="59" rx="7" transform="translate(4996.478 1852.913) rotate(-30)"/></g><g transform="translate(-3475.726 -1651.627)"><path class="f" d="M373,6.54c2.8-3.127,8.66-3.127,11.463,0L748.884,413.176c3.672,4.1.409,10.172-5.463,10.172H14.579c-5.872,0-9.134-6.075-5.463-10.172Z" transform="translate(4719.161 1773.279)"/><path class="c" d="M48.2,6.138a7,7,0,0,1,10.6,0L97.008,50.4a7,7,0,0,1-5.3,11.574H15.291A7,7,0,0,1,9.992,50.4Z" transform="translate(5044.161 1770.879)"/><path class="c" d="M10.634,3.97c1.852-5.042,10.658-4.634,13.088.607L36.184,31.455c1.753,3.781-1.368,7.488-6.119,7.268L8.1,37.706c-4.751-.22-8.306-4.237-6.969-7.875Z" transform="translate(5154.16 1857.781) rotate(166)"/><path class="c" d="M28.459,9.082a7,7,0,0,1,11.754,0L61.682,42.259a7,7,0,0,1-5.877,10.8H12.867a7,7,0,0,1-5.877-10.8Z" transform="translate(5133.112 1878.829) rotate(-180)"/><path class="c" d="M24.022,2.674c2.763-3.836,9.532-3.951,12.136-.206L58.22,34.2c2.585,3.717-.878,8.457-6.245,8.548L6.5,43.515c-5.368.091-8.634-4.535-5.89-8.342Z" transform="matrix(-0.996, -0.087, 0.087, -0.996, 5105.228, 1869.708)"/><path class="c" d="M11.344,2.728C14.3-1.538,20.69-2.131,22.821,1.663l8.121,14.458c2.121,3.777-1.573,9.073-6.658,9.545l-19.376,1.8c-5.085.472-7.759-4.233-4.819-8.479Z" transform="matrix(-0.848, -0.53, 0.53, -0.848, 5066.593, 1859.121)"/></g><g transform="translate(62 -530)"><g transform="translate(-135.111 192.881)"><path class="g" d="M26.916,10.693a7,7,0,0,1,12.168,0L60.048,47.538A7,7,0,0,1,53.964,58H12.036A7,7,0,0,1,5.952,47.538Z" transform="translate(205.111 697.119)"/><path class="g" d="M56.5,0,113,97H0Z" transform="translate(182.111 725.119)"/><path class="g" d="M66,0l66,119H0Z" transform="translate(172.111 763.119)"/></g><g transform="translate(-216 151)"><path class="h" d="M33.9,10.825a7,7,0,0,1,12.2,0L74.121,60.564A7,7,0,0,1,68.022,71H11.978a7,7,0,0,1-6.1-10.436Z" transform="translate(213 697)"/><path class="h" d="M63.455,10.35a7,7,0,0,1,12.089,0l57.305,98.12A7,7,0,0,1,126.805,119H12.195A7,7,0,0,1,6.15,108.47Z" transform="translate(184 732)"/><path class="h" d="M74.879,11.033a7,7,0,0,1,12.242,0L156.232,135.6a7,7,0,0,1-6.121,10.4H11.889a7,7,0,0,1-6.121-10.4Z" transform="translate(172 778)"/></g><g transform="translate(8.338 180.726)"><path class="g" d="M25.78,12.052a7,7,0,0,1,12.441,0L58.73,51.79A7,7,0,0,1,52.51,62H11.49A7,7,0,0,1,5.27,51.79Z" transform="translate(203.662 697.274)"/><path class="g" d="M53.5,0,107,103H0Z" transform="translate(182.662 727.274)"/><path class="g" d="M63.5,0,127,127H0Z" transform="translate(171.662 767.274)"/></g><g transform="translate(-90.004 219.802)"><path class="i" d="M21.892,10.906a7,7,0,0,1,12.215,0L50.165,39.58A7,7,0,0,1,44.057,50H11.943A7,7,0,0,1,5.835,39.58Z" transform="translate(201.003 697.198)"/><path class="i" d="M42.991,10.056a7,7,0,0,1,12.018,0L91.671,71.409A7,7,0,0,1,85.663,82H12.337A7,7,0,0,1,6.329,71.409Z" transform="translate(180.003 721.198)"/><path class="i" d="M50.377,11.055a7,7,0,0,1,12.247,0l44.62,80.554A7,7,0,0,1,101.12,102H11.88A7,7,0,0,1,5.756,91.608Z" transform="translate(172.003 753.198)"/></g><g transform="translate(-57.111 166.552)"><path class="h" d="M31.414,10.712a7,7,0,0,1,12.172,0l25.472,44.83A7,7,0,0,1,62.972,66H12.028A7,7,0,0,1,5.942,55.542Z" transform="translate(210.111 697.448)"/><path class="h" d="M58.974,10.2a7,7,0,0,1,12.053,0l52.733,89.24A7,7,0,0,1,117.733,110H12.267A7,7,0,0,1,6.241,99.439Z" transform="translate(183.111 729.448)"/><path class="h" d="M69.38,11.024a7,7,0,0,1,12.24,0L145.228,125.6a7,7,0,0,1-6.12,10.4H11.892a7,7,0,0,1-6.12-10.4Z" transform="translate(172.111 772.448)"/></g><g transform="translate(271.338 174.881)"><path class="g" d="M29.922,10.636a7,7,0,0,1,12.155,0L66.015,52.527A7,7,0,0,1,59.938,63H12.062A7,7,0,0,1,5.985,52.527Z" transform="translate(208.662 697.119)"/><path class="g" d="M62,0l62,107H0Z" transform="translate(183.662 728.119)"/><path class="g" d="M72.5,0,145,131H0Z" transform="translate(171.662 769.119)"/></g><g transform="translate(135.338 166.881)"><path class="g" d="M31.414,10.712a7,7,0,0,1,12.172,0l25.472,44.83A7,7,0,0,1,62.972,66H12.028A7,7,0,0,1,5.942,55.542Z" transform="translate(209.662 697.119)"/><path class="g" d="M64.5,0,129,111H0Z" transform="translate(183.662 729.119)"/><path class="g" d="M75.5,0,151,136H0Z" transform="translate(171.662 772.119)"/></g><g transform="translate(87.389 192.181)"><path class="h" d="M26.891,10.923a7,7,0,0,1,12.219,0l21.064,37.66A7,7,0,0,1,54.064,59H11.936A7,7,0,0,1,5.826,48.583Z" transform="translate(205.611 696.819)"/><path class="h" d="M50.436,10.519a7,7,0,0,1,12.129,0L106.949,87.5A7,7,0,0,1,100.884,98H12.116A7,7,0,0,1,6.051,87.5Z" transform="translate(182.611 724.819)"/><path class="h" d="M59.878,11.037a7,7,0,0,1,12.243,0L126.235,108.6a7,7,0,0,1-6.122,10.4H11.887a7,7,0,0,1-6.122-10.4Z" transform="translate(172.611 763.819)"/></g><g transform="translate(385.251 192.404)"><path class="h" d="M26.916,10.693a7,7,0,0,1,12.168,0L60.048,47.538A7,7,0,0,1,53.964,58H12.036A7,7,0,0,1,5.952,47.538Z" transform="translate(205.749 697.596)"/><path class="h" d="M56.5,0,113,98H0Z" transform="translate(182.749 724.596)"/><path class="h" d="M66.5,0,133,120H0Z" transform="translate(171.749 762.596)"/></g><g transform="translate(51.996 219.802)"><path class="i" d="M21.892,10.906a7,7,0,0,1,12.215,0L50.165,39.58A7,7,0,0,1,44.057,50H11.943A7,7,0,0,1,5.835,39.58Z" transform="translate(201.003 697.198)"/><path class="i" d="M42.991,10.056a7,7,0,0,1,12.018,0L91.671,71.409A7,7,0,0,1,85.663,82H12.337A7,7,0,0,1,6.329,71.409Z" transform="translate(180.003 721.198)"/><path class="i" d="M50.377,11.055a7,7,0,0,1,12.247,0l44.62,80.554A7,7,0,0,1,101.12,102H11.88A7,7,0,0,1,5.756,91.608Z" transform="translate(172.003 753.198)"/></g><g transform="translate(210.889 150.559)"><path class="h" d="M34.42,10.659a7,7,0,0,1,12.161,0L75.029,60.532A7,7,0,0,1,68.948,71h-56.9a7,7,0,0,1-6.08-10.468Z" transform="translate(213.111 697.441)"/><path class="h" d="M63.443,10.459a7,7,0,0,1,12.115,0l57.357,99.033A7,7,0,0,1,126.857,120H12.143a7,7,0,0,1-6.057-10.508Z" transform="translate(184.111 731.441)"/><path class="h" d="M74.879,11.033a7,7,0,0,1,12.242,0L156.232,135.6a7,7,0,0,1-6.121,10.4H11.889a7,7,0,0,1-6.121-10.4Z" transform="translate(172.111 778.441)"/></g><g transform="translate(545.338 166.881)"><path class="g" d="M31.414,10.712a7,7,0,0,1,12.172,0l25.472,44.83A7,7,0,0,1,62.972,66H12.028A7,7,0,0,1,5.942,55.542Z" transform="translate(209.662 697.119)"/><path class="g" d="M58.448,10.416a7,7,0,0,1,12.1,0l52.336,90.067A7,7,0,0,1,116.836,111H12.164a7,7,0,0,1-6.052-10.517Z" transform="translate(183.662 729.119)"/><path class="g" d="M69.38,11.024a7,7,0,0,1,12.24,0L145.228,125.6a7,7,0,0,1-6.12,10.4H11.892a7,7,0,0,1-6.12-10.4Z" transform="translate(171.662 772.119)"/></g><g transform="translate(559.996 241.968)"><path class="i" d="M17.888,10.951a7,7,0,0,1,12.225,0L42.189,32.588A7,7,0,0,1,36.077,43H11.923A7,7,0,0,1,5.811,32.588Z" transform="translate(197.004 697.032)"/><path class="i" d="M36,10a7,7,0,0,1,12,0L77.639,59.4a7,7,0,0,1-6,10.6H12.363a7,7,0,0,1-6-10.6Z" transform="translate(179.004 718.032)"/><path class="i" d="M42.369,11.124a7,7,0,0,1,12.261,0l36.649,66.5A7,7,0,0,1,85.149,88h-73.3A7,7,0,0,1,5.72,77.621Z" transform="translate(172.004 745.032)"/></g><g transform="translate(435.338 203.213)"><path class="g" d="M25.426,10.606a7,7,0,0,1,12.149,0L57,44.521A7,7,0,0,1,50.924,55H12.076A7,7,0,0,1,6,44.521Z" transform="translate(202.662 696.787)"/><path class="g" d="M47.449,10.406a7,7,0,0,1,12.1,0l41.332,71.075A7,7,0,0,1,94.832,92H12.168A7,7,0,0,1,6.117,81.481Z" transform="translate(181.662 723.787)"/><path class="g" d="M62.5,0,125,113H0Z" transform="translate(171.662 758.787)"/></g><g transform="translate(352.414 207.802)"><path class="i" d="M23.881,11.014a7,7,0,0,1,12.238,0L54.222,43.6A7,7,0,0,1,48.1,54H11.9A7,7,0,0,1,5.777,43.6Z" transform="translate(203.586 697.198)"/><path class="i" d="M46.489,10.076a7,7,0,0,1,12.023,0L98.684,77.414A7,7,0,0,1,92.673,88H12.327A7,7,0,0,1,6.316,77.414Z" transform="translate(180.586 723.198)"/><path class="i" d="M54.878,11.039a7,7,0,0,1,12.243,0l49.114,88.566A7,7,0,0,1,110.114,110H11.886A7,7,0,0,1,5.764,99.605Z" transform="translate(171.586 757.198)"/></g><g transform="translate(484.233 174.296)"><path class="h" d="M30.419,10.662a7,7,0,0,1,12.161,0L67.03,53.532A7,7,0,0,1,60.949,64h-48.9A7,7,0,0,1,5.97,53.532Z" transform="translate(208.768 697.704)"/><path class="h" d="M55.943,10.453a7,7,0,0,1,12.113,0L117.91,96.491A7,7,0,0,1,111.854,107H12.146A7,7,0,0,1,6.09,96.491Z" transform="translate(183.768 727.704)"/><path class="h" d="M66.874,11.077a7,7,0,0,1,12.251,0l61.13,110.536A7,7,0,0,1,134.13,132H11.87a7,7,0,0,1-6.126-10.388Z" transform="translate(171.768 768.704)"/></g></g><g transform="translate(921 -530)"><g transform="translate(-135.111 192.881)"><path class="g" d="M26.916,10.693a7,7,0,0,1,12.168,0L60.048,47.538A7,7,0,0,1,53.964,58H12.036A7,7,0,0,1,5.952,47.538Z" transform="translate(205.111 697.119)"/><path class="g" d="M56.5,0,113,97H0Z" transform="translate(182.111 725.119)"/><path class="g" d="M66,0l66,119H0Z" transform="translate(172.111 763.119)"/></g><g transform="translate(-216 151)"><path class="h" d="M33.9,10.825a7,7,0,0,1,12.2,0L74.121,60.564A7,7,0,0,1,68.022,71H11.978a7,7,0,0,1-6.1-10.436Z" transform="translate(213 697)"/><path class="h" d="M63.455,10.35a7,7,0,0,1,12.089,0l57.305,98.12A7,7,0,0,1,126.805,119H12.195A7,7,0,0,1,6.15,108.47Z" transform="translate(184 732)"/><path class="h" d="M74.879,11.033a7,7,0,0,1,12.242,0L156.232,135.6a7,7,0,0,1-6.121,10.4H11.889a7,7,0,0,1-6.121-10.4Z" transform="translate(172 778)"/></g><g transform="translate(8.338 180.726)"><path class="g" d="M25.78,12.052a7,7,0,0,1,12.441,0L58.73,51.79A7,7,0,0,1,52.51,62H11.49A7,7,0,0,1,5.27,51.79Z" transform="translate(203.662 697.274)"/><path class="g" d="M53.5,0,107,103H0Z" transform="translate(182.662 727.274)"/><path class="g" d="M63.5,0,127,127H0Z" transform="translate(171.662 767.274)"/></g><g transform="translate(-90.004 219.802)"><path class="i" d="M21.892,10.906a7,7,0,0,1,12.215,0L50.165,39.58A7,7,0,0,1,44.057,50H11.943A7,7,0,0,1,5.835,39.58Z" transform="translate(201.003 697.198)"/><path class="i" d="M42.991,10.056a7,7,0,0,1,12.018,0L91.671,71.409A7,7,0,0,1,85.663,82H12.337A7,7,0,0,1,6.329,71.409Z" transform="translate(180.003 721.198)"/><path class="i" d="M50.377,11.055a7,7,0,0,1,12.247,0l44.62,80.554A7,7,0,0,1,101.12,102H11.88A7,7,0,0,1,5.756,91.608Z" transform="translate(172.003 753.198)"/></g><g transform="translate(-57.111 166.552)"><path class="h" d="M31.414,10.712a7,7,0,0,1,12.172,0l25.472,44.83A7,7,0,0,1,62.972,66H12.028A7,7,0,0,1,5.942,55.542Z" transform="translate(210.111 697.448)"/><path class="h" d="M58.974,10.2a7,7,0,0,1,12.053,0l52.733,89.24A7,7,0,0,1,117.733,110H12.267A7,7,0,0,1,6.241,99.439Z" transform="translate(183.111 729.448)"/><path class="h" d="M69.38,11.024a7,7,0,0,1,12.24,0L145.228,125.6a7,7,0,0,1-6.12,10.4H11.892a7,7,0,0,1-6.12-10.4Z" transform="translate(172.111 772.448)"/></g><g transform="translate(271.338 174.881)"><path class="g" d="M29.922,10.636a7,7,0,0,1,12.155,0L66.015,52.527A7,7,0,0,1,59.938,63H12.062A7,7,0,0,1,5.985,52.527Z" transform="translate(208.662 697.119)"/><path class="g" d="M62,0l62,107H0Z" transform="translate(183.662 728.119)"/><path class="g" d="M72.5,0,145,131H0Z" transform="translate(171.662 769.119)"/></g><g transform="translate(135.338 166.881)"><path class="g" d="M31.414,10.712a7,7,0,0,1,12.172,0l25.472,44.83A7,7,0,0,1,62.972,66H12.028A7,7,0,0,1,5.942,55.542Z" transform="translate(209.662 697.119)"/><path class="g" d="M64.5,0,129,111H0Z" transform="translate(183.662 729.119)"/><path class="g" d="M75.5,0,151,136H0Z" transform="translate(171.662 772.119)"/></g><g transform="translate(87.389 192.181)"><path class="h" d="M26.891,10.923a7,7,0,0,1,12.219,0l21.064,37.66A7,7,0,0,1,54.064,59H11.936A7,7,0,0,1,5.826,48.583Z" transform="translate(205.611 696.819)"/><path class="h" d="M50.436,10.519a7,7,0,0,1,12.129,0L106.949,87.5A7,7,0,0,1,100.884,98H12.116A7,7,0,0,1,6.051,87.5Z" transform="translate(182.611 724.819)"/><path class="h" d="M59.878,11.037a7,7,0,0,1,12.243,0L126.235,108.6a7,7,0,0,1-6.122,10.4H11.887a7,7,0,0,1-6.122-10.4Z" transform="translate(172.611 763.819)"/></g><g transform="translate(385.251 192.404)"><path class="h" d="M26.916,10.693a7,7,0,0,1,12.168,0L60.048,47.538A7,7,0,0,1,53.964,58H12.036A7,7,0,0,1,5.952,47.538Z" transform="translate(205.749 697.596)"/><path class="h" d="M56.5,0,113,98H0Z" transform="translate(182.749 724.596)"/><path class="h" d="M66.5,0,133,120H0Z" transform="translate(171.749 762.596)"/></g><g transform="translate(51.996 219.802)"><path class="i" d="M21.892,10.906a7,7,0,0,1,12.215,0L50.165,39.58A7,7,0,0,1,44.057,50H11.943A7,7,0,0,1,5.835,39.58Z" transform="translate(201.003 697.198)"/><path class="i" d="M42.991,10.056a7,7,0,0,1,12.018,0L91.671,71.409A7,7,0,0,1,85.663,82H12.337A7,7,0,0,1,6.329,71.409Z" transform="translate(180.003 721.198)"/><path class="i" d="M50.377,11.055a7,7,0,0,1,12.247,0l44.62,80.554A7,7,0,0,1,101.12,102H11.88A7,7,0,0,1,5.756,91.608Z" transform="translate(172.003 753.198)"/></g><g transform="translate(210.889 150.559)"><path class="h" d="M34.42,10.659a7,7,0,0,1,12.161,0L75.029,60.532A7,7,0,0,1,68.948,71h-56.9a7,7,0,0,1-6.08-10.468Z" transform="translate(213.111 697.441)"/><path class="h" d="M63.443,10.459a7,7,0,0,1,12.115,0l57.357,99.033A7,7,0,0,1,126.857,120H12.143a7,7,0,0,1-6.057-10.508Z" transform="translate(184.111 731.441)"/><path class="h" d="M74.879,11.033a7,7,0,0,1,12.242,0L156.232,135.6a7,7,0,0,1-6.121,10.4H11.889a7,7,0,0,1-6.121-10.4Z" transform="translate(172.111 778.441)"/></g><g transform="translate(545.338 166.881)"><path class="g" d="M31.414,10.712a7,7,0,0,1,12.172,0l25.472,44.83A7,7,0,0,1,62.972,66H12.028A7,7,0,0,1,5.942,55.542Z" transform="translate(209.662 697.119)"/><path class="g" d="M58.448,10.416a7,7,0,0,1,12.1,0l52.336,90.067A7,7,0,0,1,116.836,111H12.164a7,7,0,0,1-6.052-10.517Z" transform="translate(183.662 729.119)"/><path class="g" d="M69.38,11.024a7,7,0,0,1,12.24,0L145.228,125.6a7,7,0,0,1-6.12,10.4H11.892a7,7,0,0,1-6.12-10.4Z" transform="translate(171.662 772.119)"/></g><g transform="translate(559.996 241.968)"><path class="i" d="M17.888,10.951a7,7,0,0,1,12.225,0L42.189,32.588A7,7,0,0,1,36.077,43H11.923A7,7,0,0,1,5.811,32.588Z" transform="translate(197.004 697.032)"/><path class="i" d="M36,10a7,7,0,0,1,12,0L77.639,59.4a7,7,0,0,1-6,10.6H12.363a7,7,0,0,1-6-10.6Z" transform="translate(179.004 718.032)"/><path class="i" d="M42.369,11.124a7,7,0,0,1,12.261,0l36.649,66.5A7,7,0,0,1,85.149,88h-73.3A7,7,0,0,1,5.72,77.621Z" transform="translate(172.004 745.032)"/></g><g transform="translate(435.338 203.213)"><path class="g" d="M25.426,10.606a7,7,0,0,1,12.149,0L57,44.521A7,7,0,0,1,50.924,55H12.076A7,7,0,0,1,6,44.521Z" transform="translate(202.662 696.787)"/><path class="g" d="M47.449,10.406a7,7,0,0,1,12.1,0l41.332,71.075A7,7,0,0,1,94.832,92H12.168A7,7,0,0,1,6.117,81.481Z" transform="translate(181.662 723.787)"/><path class="g" d="M62.5,0,125,113H0Z" transform="translate(171.662 758.787)"/></g><g transform="translate(352.414 207.802)"><path class="i" d="M23.881,11.014a7,7,0,0,1,12.238,0L54.222,43.6A7,7,0,0,1,48.1,54H11.9A7,7,0,0,1,5.777,43.6Z" transform="translate(203.586 697.198)"/><path class="i" d="M46.489,10.076a7,7,0,0,1,12.023,0L98.684,77.414A7,7,0,0,1,92.673,88H12.327A7,7,0,0,1,6.316,77.414Z" transform="translate(180.586 723.198)"/><path class="i" d="M54.878,11.039a7,7,0,0,1,12.243,0l49.114,88.566A7,7,0,0,1,110.114,110H11.886A7,7,0,0,1,5.764,99.605Z" transform="translate(171.586 757.198)"/></g><g transform="translate(484.233 174.296)"><path class="h" d="M30.419,10.662a7,7,0,0,1,12.161,0L67.03,53.532A7,7,0,0,1,60.949,64h-48.9A7,7,0,0,1,5.97,53.532Z" transform="translate(208.768 697.704)"/><path class="h" d="M55.943,10.453a7,7,0,0,1,12.113,0L117.91,96.491A7,7,0,0,1,111.854,107H12.146A7,7,0,0,1,6.09,96.491Z" transform="translate(183.768 727.704)"/><path class="h" d="M66.874,11.077a7,7,0,0,1,12.251,0l61.13,110.536A7,7,0,0,1,134.13,132H11.87a7,7,0,0,1-6.126-10.388Z" transform="translate(171.768 768.704)"/></g></g><g transform="translate(1757 -530)"><g transform="translate(-135.111 192.881)"><path class="g" d="M26.916,10.693a7,7,0,0,1,12.168,0L60.048,47.538A7,7,0,0,1,53.964,58H12.036A7,7,0,0,1,5.952,47.538Z" transform="translate(205.111 697.119)"/><path class="g" d="M56.5,0,113,97H0Z" transform="translate(182.111 725.119)"/><path class="g" d="M66,0l66,119H0Z" transform="translate(172.111 763.119)"/></g><g transform="translate(-216 151)"><path class="h" d="M33.9,10.825a7,7,0,0,1,12.2,0L74.121,60.564A7,7,0,0,1,68.022,71H11.978a7,7,0,0,1-6.1-10.436Z" transform="translate(213 697)"/><path class="h" d="M63.455,10.35a7,7,0,0,1,12.089,0l57.305,98.12A7,7,0,0,1,126.805,119H12.195A7,7,0,0,1,6.15,108.47Z" transform="translate(184 732)"/><path class="h" d="M74.879,11.033a7,7,0,0,1,12.242,0L156.232,135.6a7,7,0,0,1-6.121,10.4H11.889a7,7,0,0,1-6.121-10.4Z" transform="translate(172 778)"/></g><g transform="translate(8.338 180.726)"><path class="g" d="M25.78,12.052a7,7,0,0,1,12.441,0L58.73,51.79A7,7,0,0,1,52.51,62H11.49A7,7,0,0,1,5.27,51.79Z" transform="translate(203.662 697.274)"/><path class="g" d="M53.5,0,107,103H0Z" transform="translate(182.662 727.274)"/><path class="g" d="M63.5,0,127,127H0Z" transform="translate(171.662 767.274)"/></g><g transform="translate(-90.004 219.802)"><path class="i" d="M21.892,10.906a7,7,0,0,1,12.215,0L50.165,39.58A7,7,0,0,1,44.057,50H11.943A7,7,0,0,1,5.835,39.58Z" transform="translate(201.003 697.198)"/><path class="i" d="M42.991,10.056a7,7,0,0,1,12.018,0L91.671,71.409A7,7,0,0,1,85.663,82H12.337A7,7,0,0,1,6.329,71.409Z" transform="translate(180.003 721.198)"/><path class="i" d="M50.377,11.055a7,7,0,0,1,12.247,0l44.62,80.554A7,7,0,0,1,101.12,102H11.88A7,7,0,0,1,5.756,91.608Z" transform="translate(172.003 753.198)"/></g><g transform="translate(-57.111 166.552)"><path class="h" d="M31.414,10.712a7,7,0,0,1,12.172,0l25.472,44.83A7,7,0,0,1,62.972,66H12.028A7,7,0,0,1,5.942,55.542Z" transform="translate(210.111 697.448)"/><path class="h" d="M58.974,10.2a7,7,0,0,1,12.053,0l52.733,89.24A7,7,0,0,1,117.733,110H12.267A7,7,0,0,1,6.241,99.439Z" transform="translate(183.111 729.448)"/><path class="h" d="M69.38,11.024a7,7,0,0,1,12.24,0L145.228,125.6a7,7,0,0,1-6.12,10.4H11.892a7,7,0,0,1-6.12-10.4Z" transform="translate(172.111 772.448)"/></g><g transform="translate(271.338 174.881)"><path class="g" d="M29.922,10.636a7,7,0,0,1,12.155,0L66.015,52.527A7,7,0,0,1,59.938,63H12.062A7,7,0,0,1,5.985,52.527Z" transform="translate(208.662 697.119)"/><path class="g" d="M62,0l62,107H0Z" transform="translate(183.662 728.119)"/><path class="g" d="M72.5,0,145,131H0Z" transform="translate(171.662 769.119)"/></g><g transform="translate(135.338 166.881)"><path class="g" d="M31.414,10.712a7,7,0,0,1,12.172,0l25.472,44.83A7,7,0,0,1,62.972,66H12.028A7,7,0,0,1,5.942,55.542Z" transform="translate(209.662 697.119)"/><path class="g" d="M64.5,0,129,111H0Z" transform="translate(183.662 729.119)"/><path class="g" d="M75.5,0,151,136H0Z" transform="translate(171.662 772.119)"/></g><g transform="translate(87.389 192.181)"><path class="h" d="M26.891,10.923a7,7,0,0,1,12.219,0l21.064,37.66A7,7,0,0,1,54.064,59H11.936A7,7,0,0,1,5.826,48.583Z" transform="translate(205.611 696.819)"/><path class="h" d="M50.436,10.519a7,7,0,0,1,12.129,0L106.949,87.5A7,7,0,0,1,100.884,98H12.116A7,7,0,0,1,6.051,87.5Z" transform="translate(182.611 724.819)"/><path class="h" d="M59.878,11.037a7,7,0,0,1,12.243,0L126.235,108.6a7,7,0,0,1-6.122,10.4H11.887a7,7,0,0,1-6.122-10.4Z" transform="translate(172.611 763.819)"/></g><g transform="translate(385.251 192.404)"><path class="h" d="M26.916,10.693a7,7,0,0,1,12.168,0L60.048,47.538A7,7,0,0,1,53.964,58H12.036A7,7,0,0,1,5.952,47.538Z" transform="translate(205.749 697.596)"/><path class="h" d="M56.5,0,113,98H0Z" transform="translate(182.749 724.596)"/><path class="h" d="M66.5,0,133,120H0Z" transform="translate(171.749 762.596)"/></g><g transform="translate(51.996 219.802)"><path class="i" d="M21.892,10.906a7,7,0,0,1,12.215,0L50.165,39.58A7,7,0,0,1,44.057,50H11.943A7,7,0,0,1,5.835,39.58Z" transform="translate(201.003 697.198)"/><path class="i" d="M42.991,10.056a7,7,0,0,1,12.018,0L91.671,71.409A7,7,0,0,1,85.663,82H12.337A7,7,0,0,1,6.329,71.409Z" transform="translate(180.003 721.198)"/><path class="i" d="M50.377,11.055a7,7,0,0,1,12.247,0l44.62,80.554A7,7,0,0,1,101.12,102H11.88A7,7,0,0,1,5.756,91.608Z" transform="translate(172.003 753.198)"/></g><g transform="translate(210.889 150.559)"><path class="h" d="M34.42,10.659a7,7,0,0,1,12.161,0L75.029,60.532A7,7,0,0,1,68.948,71h-56.9a7,7,0,0,1-6.08-10.468Z" transform="translate(213.111 697.441)"/><path class="h" d="M63.443,10.459a7,7,0,0,1,12.115,0l57.357,99.033A7,7,0,0,1,126.857,120H12.143a7,7,0,0,1-6.057-10.508Z" transform="translate(184.111 731.441)"/><path class="h" d="M74.879,11.033a7,7,0,0,1,12.242,0L156.232,135.6a7,7,0,0,1-6.121,10.4H11.889a7,7,0,0,1-6.121-10.4Z" transform="translate(172.111 778.441)"/></g><g transform="translate(545.338 166.881)"><path class="g" d="M31.414,10.712a7,7,0,0,1,12.172,0l25.472,44.83A7,7,0,0,1,62.972,66H12.028A7,7,0,0,1,5.942,55.542Z" transform="translate(209.662 697.119)"/><path class="g" d="M58.448,10.416a7,7,0,0,1,12.1,0l52.336,90.067A7,7,0,0,1,116.836,111H12.164a7,7,0,0,1-6.052-10.517Z" transform="translate(183.662 729.119)"/><path class="g" d="M69.38,11.024a7,7,0,0,1,12.24,0L145.228,125.6a7,7,0,0,1-6.12,10.4H11.892a7,7,0,0,1-6.12-10.4Z" transform="translate(171.662 772.119)"/></g><g transform="translate(559.996 241.968)"><path class="i" d="M17.888,10.951a7,7,0,0,1,12.225,0L42.189,32.588A7,7,0,0,1,36.077,43H11.923A7,7,0,0,1,5.811,32.588Z" transform="translate(197.004 697.032)"/><path class="i" d="M36,10a7,7,0,0,1,12,0L77.639,59.4a7,7,0,0,1-6,10.6H12.363a7,7,0,0,1-6-10.6Z" transform="translate(179.004 718.032)"/><path class="i" d="M42.369,11.124a7,7,0,0,1,12.261,0l36.649,66.5A7,7,0,0,1,85.149,88h-73.3A7,7,0,0,1,5.72,77.621Z" transform="translate(172.004 745.032)"/></g><g transform="translate(435.338 203.213)"><path class="g" d="M25.426,10.606a7,7,0,0,1,12.149,0L57,44.521A7,7,0,0,1,50.924,55H12.076A7,7,0,0,1,6,44.521Z" transform="translate(202.662 696.787)"/><path class="g" d="M47.449,10.406a7,7,0,0,1,12.1,0l41.332,71.075A7,7,0,0,1,94.832,92H12.168A7,7,0,0,1,6.117,81.481Z" transform="translate(181.662 723.787)"/><path class="g" d="M62.5,0,125,113H0Z" transform="translate(171.662 758.787)"/></g><g transform="translate(352.414 207.802)"><path class="i" d="M23.881,11.014a7,7,0,0,1,12.238,0L54.222,43.6A7,7,0,0,1,48.1,54H11.9A7,7,0,0,1,5.777,43.6Z" transform="translate(203.586 697.198)"/><path class="i" d="M46.489,10.076a7,7,0,0,1,12.023,0L98.684,77.414A7,7,0,0,1,92.673,88H12.327A7,7,0,0,1,6.316,77.414Z" transform="translate(180.586 723.198)"/><path class="i" d="M54.878,11.039a7,7,0,0,1,12.243,0l49.114,88.566A7,7,0,0,1,110.114,110H11.886A7,7,0,0,1,5.764,99.605Z" transform="translate(171.586 757.198)"/></g><g transform="translate(484.233 174.296)"><path class="h" d="M30.419,10.662a7,7,0,0,1,12.161,0L67.03,53.532A7,7,0,0,1,60.949,64h-48.9A7,7,0,0,1,5.97,53.532Z" transform="translate(208.768 697.704)"/><path class="h" d="M55.943,10.453a7,7,0,0,1,12.113,0L117.91,96.491A7,7,0,0,1,111.854,107H12.146A7,7,0,0,1,6.09,96.491Z" transform="translate(183.768 727.704)"/><path class="h" d="M66.874,11.077a7,7,0,0,1,12.251,0l61.13,110.536A7,7,0,0,1,134.13,132H11.87a7,7,0,0,1-6.126-10.388Z" transform="translate(171.768 768.704)"/></g></g><g class="j" transform="translate(1476 546.243)"><path class="b" d="M309.2,2.45a7,7,0,0,1,7.591,0L606.04,189.118a7,7,0,0,1-3.8,12.882H23.756a7,7,0,0,1-3.8-12.882Z" transform="translate(626 201.757) rotate(180)"/><path class="c" d="M55.21,2.441a7,7,0,0,1,7.581,0l35.2,22.674A7,7,0,0,1,94.2,38H23.8a7,7,0,0,1-3.79-12.885Z" transform="translate(372 201.757) rotate(180)"/><path class="c" d="M16.068,2.914a6.6,6.6,0,0,1,7.863,0h0A6.6,6.6,0,0,1,20,14.822h0A6.6,6.6,0,0,1,16.068,2.914Z" transform="translate(263 158.246)"/><path class="c" d="M20.444,2.883a7,7,0,0,1,8.111,0l2.57,1.827A7,7,0,0,1,27.07,17.416H21.93A7,7,0,0,1,17.874,4.71Z" transform="translate(321.3 151.573)"/><path class="c" d="M17.3,11.17,64.487-4.093c3.258-1.054,5.044-.253,3.991,1.787L56.212,21.45c-1.054,2.041-4.549,4.55-7.806,5.6L1.218,42.317c-3.258,1.054-5.044.253-3.991-1.787L9.493,16.774C10.547,14.733,14.042,12.224,17.3,11.17Z" transform="translate(303.644 136.025) rotate(30)"/></g><g class="j" transform="translate(1041 545)"><path class="b" d="M373,207.795c2.8,1.527,8.66,1.527,11.463,0L748.884,9.163c3.672-2,.409-4.969-5.463-4.969H14.579c-5.872,0-9.134,2.967-5.463,4.969Z" transform="translate(-7.565 -4.195)"/><path class="c" d="M76.092,1.9a7,7,0,0,1,6.816,0L135.47,31.194a7,7,0,0,1-3.408,13.114H26.938A7,7,0,0,1,23.53,31.194Z" transform="translate(450.435 207.451) rotate(180)"/><path class="c" d="M36.656,8.618c3.475-3.609,9.8-5.4,10.759-3.054L55.991,26.6c.864,2.121-3.379,6.109-7.85,7.378L8.462,45.246c-4.471,1.269-6.043-1.068-2.909-4.324Z" transform="translate(387.104 127.095) rotate(30)"/><path class="c" d="M16.841,3.766a7,7,0,0,1,8.991,0L27.913,5.51a7,7,0,0,1-4.5,12.366H19.255a7,7,0,0,1-4.5-12.366Z" transform="translate(295.714 152.446)"/><path class="c" d="M32.326,26.456,75.815,8.439c2.588-1.072,3.817.463,2.745,3.429L62.091,57.43a13.993,13.993,0,0,1-6.628,7.312L11.974,82.759C9.386,83.831,8.157,82.3,9.229,79.33L25.7,33.768A13.993,13.993,0,0,1,32.326,26.456Z" transform="translate(359.396 108.197) rotate(50)"/><path class="c" d="M19.41,1.614a3,3,0,0,1,3.853,0L36.347,12.576a3,3,0,0,1-1.927,5.3H8.252a3,3,0,0,1-1.927-5.3Z" transform="translate(363.714 147.641)"/><path class="c" d="M-.157,1.458c.33-3.233,5-1.27,8.072,3.392L19.417,22.3c2.853,4.329,2.178,7.79-1.239,6.354L5.442,23.3C2.025,21.868-1.7,16.559-1.391,13.558Z" transform="matrix(0.616, -0.788, 0.788, 0.616, 400.433, 168.932)"/></g><g class="j" transform="translate(830 546.243)"><path class="f" d="M308.763,3.222a7,7,0,0,1,8.474,0L609.466,225.428A7,7,0,0,1,605.229,238H20.771a7,7,0,0,1-4.237-12.572Z" transform="translate(626 237.757) rotate(180)"/><path class="c" d="M46.748,3.252a7,7,0,0,1,8.5,0L85.575,26.439A7,7,0,0,1,81.323,39H20.677a7,7,0,0,1-4.252-12.561Z" transform="translate(364 237.757) rotate(180)"/><path class="c" d="M15.4,4.022a7,7,0,0,1,9.21,0L25.95,5.2a7,7,0,0,1-4.6,12.272H18.655A7,7,0,0,1,14.05,5.2Z" transform="translate(263 186.56)"/><path class="c" d="M20,3.766a7,7,0,0,1,8.991,0l5.245,4.395a7,7,0,0,1-4.5,12.366H19.255a7,7,0,0,1-4.5-12.366Z" transform="translate(321.3 178.694)"/><path class="c" d="M23.757,21.368,71.872,7.71c3.322-.943,5.25.1,4.307,2.336L65.2,36.035c-.943,2.233-4.4,4.807-7.722,5.75L9.367,55.444c-3.322.943-5.25-.1-4.307-2.336l10.975-25.99C16.979,24.886,20.436,22.311,23.757,21.368Z" transform="translate(303.15 151.582) rotate(30)"/></g><g class="j" transform="translate(1673 545)"><path class="b" d="M373,207.795c2.8,1.527,8.66,1.527,11.463,0L748.884,9.163c3.672-2,.409-4.969-5.463-4.969H14.579c-5.872,0-9.134,2.967-5.463,4.969Z" transform="translate(-7.565 -4.195)"/><path class="c" d="M73.8,2.308a7,7,0,0,1,7.406,0l53.037,33.06a7,7,0,0,1-3.7,12.94H24.463a7,7,0,0,1-3.7-12.94Z" transform="translate(448.435 209.451) rotate(180)"/><path class="c" d="M36.656,8.618c3.475-3.609,9.8-5.4,10.759-3.054L55.991,26.6c.864,2.121-3.379,6.109-7.85,7.378L8.462,45.246c-4.471,1.269-6.043-1.068-2.909-4.324Z" transform="translate(387.104 127.095) rotate(30)"/><path class="c" d="M16.841,3.766a7,7,0,0,1,8.991,0L27.913,5.51a7,7,0,0,1-4.5,12.366H19.255a7,7,0,0,1-4.5-12.366Z" transform="translate(295.714 152.446)"/><path class="c" d="M32.326,26.456,75.815,8.439c2.588-1.072,3.817.463,2.745,3.429L62.091,57.43a13.993,13.993,0,0,1-6.628,7.312L11.974,82.759C9.386,83.831,8.157,82.3,9.229,79.33L25.7,33.768A13.993,13.993,0,0,1,32.326,26.456Z" transform="translate(359.396 108.197) rotate(50)"/><path class="c" d="M16.841,3.766a7,7,0,0,1,8.991,0L27.913,5.51a7,7,0,0,1-4.5,12.366H19.255a7,7,0,0,1-4.5-12.366Z" transform="translate(363.714 147.641)"/><path class="c" d="M-.157,1.458c.33-3.233,5-1.27,8.072,3.392L19.417,22.3c2.853,4.329,2.178,7.79-1.239,6.354L5.442,23.3C2.025,21.868-1.7,16.559-1.391,13.558Z" transform="matrix(0.616, -0.788, 0.788, 0.616, 400.433, 168.932)"/></g><g class="j" transform="translate(1871 545)"><path class="f" d="M373,230.378c2.8,1.7,8.66,1.7,11.463,0L748.884,9.715c3.672-2.223.409-5.52-5.463-5.52H14.579c-5.872,0-9.134,3.3-5.463,5.52Z" transform="translate(-7.565 -4.195)"/><path class="c" d="M66.82,2.274a7,7,0,0,1,7.36,0l45.858,28.341a7,7,0,0,1-3.68,12.955H24.642a7,7,0,0,1-3.68-12.955Z" transform="translate(441.435 231.035) rotate(180)"/><path class="c" d="M16.814,4.688c2.927-3.245,11.541-4.423,12.8-1.75l6.471,13.706c.91,1.928-2.981,4.6-7.628,5.232L6.975,24.813c-4.647.635-7.287-1.141-5.175-3.482Z" transform="translate(388.129 174.557) rotate(14)"/><path class="c" d="M29.838,3.772a7,7,0,0,1,9,0l15.1,12.659a7,7,0,0,1-4.5,12.364H19.241a7,7,0,0,1-4.5-12.364Z" transform="translate(337.714 172.455)"/><path class="c" d="M21.18.728c2.446-1.942,9.2-1.61,12.1.594L57.9,20c2.885,2.189-.186,4.585-5.539,4.322L7.017,22.1c-5.352-.263-8.992-2.989-6.563-4.917Z" transform="matrix(0.996, -0.087, 0.087, 0.996, 321.535, 181.57)"/><path class="c" d="M3.431.387c1.078-2.108,6.771-.4,10.223,3.074L26.8,16.683c3.435,3.454,2.072,6.062-2.458,4.7L7.089,16.194C2.56,14.832-1.748,10.519-.675,8.42Z" transform="matrix(0.848, -0.53, 0.53, 0.848, 318.28, 191.968)"/></g><g class="j" transform="translate(298 545)"><path class="b" d="M373,207.795c2.8,1.527,8.66,1.527,11.463,0L748.884,9.163c3.672-2,.409-4.969-5.463-4.969H14.579c-5.872,0-9.134,2.967-5.463,4.969Z" transform="translate(-7.565 -4.195)"/><path class="c" d="M72.108,1.879a7,7,0,0,1,6.784,0L127.31,28.7a7,7,0,0,1-3.392,13.123H27.082A7,7,0,0,1,23.69,28.7Z" transform="translate(446.435 207.451) rotate(180)"/><path class="c" d="M36.656,8.618c3.475-3.609,9.8-5.4,10.759-3.054L55.991,26.6c.864,2.121-3.379,6.109-7.85,7.378L8.462,45.246c-4.471,1.269-6.043-1.068-2.909-4.324Z" transform="translate(387.104 127.095) rotate(30)"/><path class="c" d="M16.841,3.766a7,7,0,0,1,8.991,0L27.913,5.51a7,7,0,0,1-4.5,12.366H19.255a7,7,0,0,1-4.5-12.366Z" transform="translate(295.714 152.446)"/><path class="c" d="M32.326,26.456,75.815,8.439c2.588-1.072,3.817.463,2.745,3.429L62.091,57.43a13.993,13.993,0,0,1-6.628,7.312L11.974,82.759C9.386,83.831,8.157,82.3,9.229,79.33L25.7,33.768A13.993,13.993,0,0,1,32.326,26.456Z" transform="translate(359.396 108.197) rotate(50)"/><path class="c" d="M16.841,3.766a7,7,0,0,1,8.991,0L27.913,5.51a7,7,0,0,1-4.5,12.366H19.255a7,7,0,0,1-4.5-12.366Z" transform="translate(363.714 147.641)"/><path class="c" d="M-.157,1.458c.33-3.233,5-1.27,8.072,3.392L19.417,22.3c2.853,4.329,2.178,7.79-1.239,6.354L5.442,23.3C2.025,21.868-1.7,16.559-1.391,13.558Z" transform="matrix(0.616, -0.788, 0.788, 0.616, 400.433, 168.932)"/></g><g class="j" transform="translate(540 545)"><path class="f" d="M373,230.378c2.8,1.7,8.66,1.7,11.463,0L748.884,9.715c3.672-2.223.409-5.52-5.463-5.52H14.579c-5.872,0-9.134,3.3-5.463,5.52Z" transform="translate(-7.565 -4.195)"/><path class="c" d="M66.82,2.274a7,7,0,0,1,7.36,0l45.858,28.341a7,7,0,0,1-3.68,12.955H24.642a7,7,0,0,1-3.68-12.955Z" transform="translate(441.435 231.035) rotate(180)"/><path class="c" d="M16.814,4.688c2.927-3.245,11.541-4.423,12.8-1.75l6.471,13.706c.91,1.928-2.981,4.6-7.628,5.232L6.975,24.813c-4.647.635-7.287-1.141-5.175-3.482Z" transform="translate(388.129 174.557) rotate(14)"/><path class="c" d="M29.838,3.772a7,7,0,0,1,9,0l15.1,12.659a7,7,0,0,1-4.5,12.364H19.241a7,7,0,0,1-4.5-12.364Z" transform="translate(337.714 172.455)"/><path class="c" d="M21.18.728c2.446-1.942,9.2-1.61,12.1.594L57.9,20c2.885,2.189-.186,4.585-5.539,4.322L7.017,22.1c-5.352-.263-8.992-2.989-6.563-4.917Z" transform="matrix(0.996, -0.087, 0.087, 0.996, 321.535, 181.57)"/><path class="c" d="M3.431.387c1.078-2.108,6.771-.4,10.223,3.074L26.8,16.683c3.435,3.454,2.072,6.062-2.458,4.7L7.089,16.194C2.56,14.832-1.748,10.519-.675,8.42Z" transform="matrix(0.848, -0.53, 0.53, 0.848, 318.28, 191.968)"/></g><g class="j" transform="translate(76 546.243)"><path class="f" d="M308.763,3.222a7,7,0,0,1,8.474,0L609.466,225.428A7,7,0,0,1,605.229,238H20.771a7,7,0,0,1-4.237-12.572Z" transform="translate(626 237.757) rotate(180)"/><path class="c" d="M55.741,3.265a7,7,0,0,1,8.518,0l39.365,30.18A7,7,0,0,1,99.365,46H20.635a7,7,0,0,1-4.259-12.555Z" transform="translate(373 237.757) rotate(180)"/><path class="c" d="M15.4,4.022a7,7,0,0,1,9.21,0L25.95,5.2a7,7,0,0,1-4.6,12.272H18.655A7,7,0,0,1,14.05,5.2Z" transform="translate(263 186.56)"/><path class="c" d="M20,3.766a7,7,0,0,1,8.991,0l5.245,4.395a7,7,0,0,1-4.5,12.366H19.255a7,7,0,0,1-4.5-12.366Z" transform="translate(321.3 178.694)"/><path class="c" d="M23.757,21.368,71.872,7.71c3.322-.943,5.25.1,4.307,2.336L65.2,36.035c-.943,2.233-4.4,4.807-7.722,5.75L9.367,55.444c-3.322.943-5.25-.1-4.307-2.336l10.975-25.99C16.979,24.886,20.436,22.311,23.757,21.368Z" transform="translate(303.15 151.582) rotate(30)"/></g><g class="j" transform="translate(1251 545)"><path class="f" d="M373,230.378c2.8,1.7,8.66,1.7,11.463,0L748.884,9.715c3.672-2.223.409-5.52-5.463-5.52H14.579c-5.872,0-9.134,3.3-5.463,5.52Z" transform="translate(-7.565 -4.195)"/><path class="c" d="M66.82,2.274a7,7,0,0,1,7.36,0l45.858,28.341a7,7,0,0,1-3.68,12.955H24.642a7,7,0,0,1-3.68-12.955Z" transform="translate(441.435 231.035) rotate(180)"/><path class="c" d="M16.814,4.688c2.927-3.245,11.541-4.423,12.8-1.75l6.471,13.706c.91,1.928-2.981,4.6-7.628,5.232L6.975,24.813c-4.647.635-7.287-1.141-5.175-3.482Z" transform="translate(388.129 174.557) rotate(14)"/><path class="c" d="M29.838,3.772a7,7,0,0,1,9,0l15.1,12.659a7,7,0,0,1-4.5,12.364H19.241a7,7,0,0,1-4.5-12.364Z" transform="translate(337.714 172.455)"/><path class="c" d="M21.18.728c2.446-1.942,9.2-1.61,12.1.594L57.9,20c2.885,2.189-.186,4.585-5.539,4.322L7.017,22.1c-5.352-.263-8.992-2.989-6.563-4.917Z" transform="matrix(0.996, -0.087, 0.087, 0.996, 321.535, 181.57)"/><path class="c" d="M3.431.387c1.078-2.108,6.771-.4,10.223,3.074L26.8,16.683c3.435,3.454,2.072,6.062-2.458,4.7L7.089,16.194C2.56,14.832-1.748,10.519-.675,8.42Z" transform="matrix(0.848, -0.53, 0.53, 0.848, 318.28, 191.968)"/></g><g class="k" transform="translate(18 545)"><g transform="translate(81 0)"><path class="g" d="M28.773,3.2a7,7,0,0,1,8.454,0L49.395,12.42A7,7,0,0,1,45.168,25H20.832a7,7,0,0,1-4.227-12.58Z" transform="translate(99 81) rotate(180)"/><path class="g" d="M56.5,42.364,113,0H0Z" transform="translate(10 26.204)"/><path class="g" d="M66,0l66,52H0Z" transform="translate(132 52) rotate(180)"/></g><g transform="translate(0 0)"><path class="h" d="M35.712,3.323a7,7,0,0,1,8.576,0L63.829,18.467A7,7,0,0,1,59.541,31H20.459a7,7,0,0,1-4.288-12.533Z" transform="translate(121 99) rotate(180)"/><path class="h" d="M65.359,3.039a7,7,0,0,1,8.283,0L121.77,38.356A7,7,0,0,1,117.629,51H21.371A7,7,0,0,1,17.23,38.356Z" transform="translate(151 83) rotate(180)"/><path class="h" d="M76.7,3.343a7,7,0,0,1,8.6,0l60.6,47.132A7,7,0,0,1,141.6,63H20.4a7,7,0,0,1-4.3-12.525Z" transform="translate(162 63) rotate(180)"/></g><g transform="translate(224 0)"><path class="g" d="M27.39,4.033a7,7,0,0,1,9.219,0l13.37,11.7A7,7,0,0,1,45.37,28H18.63a7,7,0,0,1-4.61-12.268Z" transform="translate(96 86) rotate(180)"/><path class="g" d="M53.5,0,107,46H0Z" transform="translate(118 73) rotate(180)"/><path class="g" d="M63.5,0,127,56H0Z" transform="translate(127 56) rotate(180)"/></g><g transform="translate(126 0)"><path class="i" d="M23.557,3.65a7,7,0,0,1,8.886,0l8.45,6.941A7,7,0,0,1,36.45,23H19.55a7,7,0,0,1-4.443-12.409Z" transform="translate(85 70) rotate(180)"/><path class="i" d="M44.855,3.045a7,7,0,0,1,8.289,0L80.794,23.359A7,7,0,0,1,76.649,36h-55.3a7,7,0,0,1-4.145-12.641Z" transform="translate(106 58) rotate(180)"/><path class="i" d="M52.139,3.473a7,7,0,0,1,8.722,0L97.336,32.524A7,7,0,0,1,92.975,45H20.025a7,7,0,0,1-4.361-12.476Z" transform="translate(113 45) rotate(180)"/></g><g transform="translate(159 0)"><path class="h" d="M33.218,3.312a7,7,0,0,1,8.564,0L58.788,16.463A7,7,0,0,1,54.506,29H20.494a7,7,0,0,1-4.282-12.537Z" transform="translate(113 92) rotate(180)"/><path class="h" d="M60.842,3.071a7,7,0,0,1,8.317,0l43.737,32.3A7,7,0,0,1,108.737,48H21.263A7,7,0,0,1,17.1,35.369Z" transform="translate(141 78) rotate(180)"/><path class="h" d="M71.145,3.461a7,7,0,0,1,8.71,0L135.3,47.52A7,7,0,0,1,130.941,60H20.059A7,7,0,0,1,15.7,47.52Z" transform="translate(151 60) rotate(180)"/></g><g transform="translate(487 0)"><path class="g" d="M31.8,3.15a7,7,0,0,1,8.4,0l15,11.25A7,7,0,0,1,51,27H21a7,7,0,0,1-4.2-12.6Z" transform="translate(109 88) rotate(180)"/><path class="g" d="M62,0l62,46H0Z" transform="translate(136 75) rotate(180)"/><path class="g" d="M72.5,0,145,57H0Z" transform="translate(145 57) rotate(180)"/></g><g transform="translate(351 0)"><path class="g" d="M33.218,3.312a7,7,0,0,1,8.564,0L58.788,16.463A7,7,0,0,1,54.506,29H20.494a7,7,0,0,1-4.282-12.537Z" transform="translate(113 92) rotate(180)"/><path class="g" d="M64.5,0,129,48H0Z" transform="translate(141 78) rotate(180)"/><path class="g" d="M75.5,0,151,60H0Z" transform="translate(151 60) rotate(180)"/></g><g transform="translate(304 0)"><path class="h" d="M28.773,3.2a7,7,0,0,1,8.454,0L49.395,12.42A7,7,0,0,1,45.168,25H20.832a7,7,0,0,1-4.227-12.58Z" transform="translate(99 81) rotate(180)"/><path class="h" d="M52.2,3.349a7,7,0,0,1,8.6,0L96.92,31.477A7,7,0,0,1,92.619,44H20.381a7,7,0,0,1-4.3-12.523Z" transform="translate(123 70) rotate(180)"/><path class="h" d="M61.668,3.413a7,7,0,0,1,8.664,0l45.8,36.088A7,7,0,0,1,111.8,52H20.2a7,7,0,0,1-4.332-12.5Z" transform="translate(132 52) rotate(180)"/></g><g transform="translate(601 0)"><path class="h" d="M28.773,3.2a7,7,0,0,1,8.454,0L49.395,12.42A7,7,0,0,1,45.168,25H20.832a7,7,0,0,1-4.227-12.58Z" transform="translate(100 81) rotate(180)"/><path class="h" d="M56.5,0,113,44H0Z" transform="translate(124 70) rotate(180)"/><path class="h" d="M66.5,0,133,52H0Z" transform="translate(133 52) rotate(180)"/></g><g transform="translate(268 0)"><path class="i" d="M23.557,3.65a7,7,0,0,1,8.886,0l8.45,6.941A7,7,0,0,1,36.45,23H19.55a7,7,0,0,1-4.443-12.409Z" transform="translate(85 70) rotate(180)"/><path class="i" d="M44.855,3.045a7,7,0,0,1,8.289,0L80.794,23.359A7,7,0,0,1,76.649,36h-55.3a7,7,0,0,1-4.145-12.641Z" transform="translate(106 58) rotate(180)"/><path class="i" d="M52.139,3.473a7,7,0,0,1,8.722,0L97.336,32.524A7,7,0,0,1,92.975,45H20.025a7,7,0,0,1-4.361-12.476Z" transform="translate(113 45) rotate(180)"/></g><g transform="translate(427 0)"><path class="h" d="M36.245,3.257a7,7,0,0,1,8.509,0L64.593,18.441A7,7,0,0,1,60.338,31H20.662a7,7,0,0,1-4.255-12.559Z" transform="translate(122 99) rotate(180)"/><path class="h" d="M65.255,3.237a7,7,0,0,1,8.489,0l48.777,37.2A7,7,0,0,1,118.277,53H20.723a7,7,0,0,1-4.245-12.566Z" transform="translate(151 85) rotate(180)"/><path class="h" d="M76.7,3.343a7,7,0,0,1,8.6,0l60.6,47.132A7,7,0,0,1,141.6,63H20.4a7,7,0,0,1-4.3-12.525Z" transform="translate(162 63) rotate(180)"/></g><g transform="translate(761 0)"><path class="g" d="M33.218,3.312a7,7,0,0,1,8.564,0L58.788,16.463A7,7,0,0,1,54.506,29H20.494a7,7,0,0,1-4.282-12.537Z" transform="translate(113 92) rotate(180)"/><path class="g" d="M60.321,3.11a7,7,0,0,1,8.358,0l43.369,32.274A7,7,0,0,1,107.869,48H21.131a7,7,0,0,1-4.179-12.616Z" transform="translate(141 78) rotate(180)"/><path class="g" d="M71.145,3.461a7,7,0,0,1,8.71,0L135.3,47.52A7,7,0,0,1,130.941,60H20.059A7,7,0,0,1,15.7,47.52Z" transform="translate(151 60) rotate(180)"/></g><g transform="translate(776 0)"><path class="i" d="M19.655,3.44a7,7,0,0,1,8.69,0l3.88,3.072A7,7,0,0,1,27.88,19H20.12A7,7,0,0,1,15.775,6.512Z" transform="translate(73 60) rotate(180)"/><path class="i" d="M37.931,2.906a7,7,0,0,1,8.137,0L66.225,17.3A7,7,0,0,1,62.157,30H21.843a7,7,0,0,1-4.069-12.7Z" transform="translate(91 50) rotate(180)"/><path class="i" d="M44.113,3.527a7,7,0,0,1,8.773,0L81.511,26.545A7,7,0,0,1,77.124,39H19.876a7,7,0,0,1-4.387-12.455Z" transform="translate(97 39) rotate(180)"/></g><g transform="translate(651 0)"><path class="g" d="M27.148,3.454a7,7,0,0,1,8.7,0l11.42,9.063A7,7,0,0,1,42.92,25H20.08a7,7,0,0,1-4.352-12.483Z" transform="translate(94 77) rotate(180)"/><path class="g" d="M49.308,3.134a7,7,0,0,1,8.383,0l32.447,24.26A7,7,0,0,1,85.947,40H21.053a7,7,0,0,1-4.192-12.606Z" transform="translate(117 65) rotate(180)"/><path class="g" d="M62.5,0,125,50H0Z" transform="translate(125 50) rotate(180)"/></g><g transform="translate(568 0)"><path class="i" d="M25.627,3.5a7,7,0,0,1,8.746,0l10.045,8.036A7,7,0,0,1,40.045,24H19.955a7,7,0,0,1-4.373-12.466Z" transform="translate(92 75) rotate(180)"/><path class="i" d="M48.4,2.971a7,7,0,0,1,8.209,0L87.495,25.33A7,7,0,0,1,83.39,38H21.61a7,7,0,0,1-4.1-12.67Z" transform="translate(114 63) rotate(180)"/><path class="i" d="M56.671,3.406a7,7,0,0,1,8.657,0L106.113,35.5A7,7,0,0,1,101.784,48H20.216a7,7,0,0,1-4.329-12.5Z" transform="translate(122 48) rotate(180)"/></g><g transform="translate(700 0)"><path class="h" d="M32.337,3.079a7,7,0,0,1,8.326,0L55.929,14.372A7,7,0,0,1,51.766,27H21.234a7,7,0,0,1-4.163-12.628Z" transform="translate(110 88) rotate(180)"/><path class="h" d="M57.771,3.206a7,7,0,0,1,8.457,0l41.179,31.216A7,7,0,0,1,103.179,47H20.821a7,7,0,0,1-4.229-12.578Z" transform="translate(136 76) rotate(180)"/><path class="h" d="M68.692,3.364a7,7,0,0,1,8.616,0l52.661,41.119A7,7,0,0,1,125.661,57H20.339a7,7,0,0,1-4.308-12.517Z" transform="translate(146 57) rotate(180)"/></g></g><g class="k" transform="translate(877 545)"><g transform="translate(81 0)"><path class="g" d="M28.773,3.2a7,7,0,0,1,8.454,0L49.395,12.42A7,7,0,0,1,45.168,25H20.832a7,7,0,0,1-4.227-12.58Z" transform="translate(99 81) rotate(180)"/><path class="g" d="M56.5,42.364,113,0H0Z" transform="translate(10 26.204)"/><path class="g" d="M66,0l66,52H0Z" transform="translate(132 52) rotate(180)"/></g><g transform="translate(0 0)"><path class="h" d="M35.712,3.323a7,7,0,0,1,8.576,0L63.829,18.467A7,7,0,0,1,59.541,31H20.459a7,7,0,0,1-4.288-12.533Z" transform="translate(121 99) rotate(180)"/><path class="h" d="M65.359,3.039a7,7,0,0,1,8.283,0L121.77,38.356A7,7,0,0,1,117.629,51H21.371A7,7,0,0,1,17.23,38.356Z" transform="translate(151 83) rotate(180)"/><path class="h" d="M76.7,3.343a7,7,0,0,1,8.6,0l60.6,47.132A7,7,0,0,1,141.6,63H20.4a7,7,0,0,1-4.3-12.525Z" transform="translate(162 63) rotate(180)"/></g><g transform="translate(224 0)"><path class="g" d="M27.39,4.033a7,7,0,0,1,9.219,0l13.37,11.7A7,7,0,0,1,45.37,28H18.63a7,7,0,0,1-4.61-12.268Z" transform="translate(96 86) rotate(180)"/><path class="g" d="M53.5,0,107,46H0Z" transform="translate(118 73) rotate(180)"/><path class="g" d="M63.5,0,127,56H0Z" transform="translate(127 56) rotate(180)"/></g><g transform="translate(126 0)"><path class="i" d="M23.557,3.65a7,7,0,0,1,8.886,0l8.45,6.941A7,7,0,0,1,36.45,23H19.55a7,7,0,0,1-4.443-12.409Z" transform="translate(85 70) rotate(180)"/><path class="i" d="M44.855,3.045a7,7,0,0,1,8.289,0L80.794,23.359A7,7,0,0,1,76.649,36h-55.3a7,7,0,0,1-4.145-12.641Z" transform="translate(106 58) rotate(180)"/><path class="i" d="M52.139,3.473a7,7,0,0,1,8.722,0L97.336,32.524A7,7,0,0,1,92.975,45H20.025a7,7,0,0,1-4.361-12.476Z" transform="translate(113 45) rotate(180)"/></g><g transform="translate(159 0)"><path class="h" d="M33.218,3.312a7,7,0,0,1,8.564,0L58.788,16.463A7,7,0,0,1,54.506,29H20.494a7,7,0,0,1-4.282-12.537Z" transform="translate(113 92) rotate(180)"/><path class="h" d="M60.842,3.071a7,7,0,0,1,8.317,0l43.737,32.3A7,7,0,0,1,108.737,48H21.263A7,7,0,0,1,17.1,35.369Z" transform="translate(141 78) rotate(180)"/><path class="h" d="M71.145,3.461a7,7,0,0,1,8.71,0L135.3,47.52A7,7,0,0,1,130.941,60H20.059A7,7,0,0,1,15.7,47.52Z" transform="translate(151 60) rotate(180)"/></g><g transform="translate(487 0)"><path class="g" d="M31.8,3.15a7,7,0,0,1,8.4,0l15,11.25A7,7,0,0,1,51,27H21a7,7,0,0,1-4.2-12.6Z" transform="translate(109 88) rotate(180)"/><path class="g" d="M62,0l62,46H0Z" transform="translate(136 75) rotate(180)"/><path class="g" d="M72.5,0,145,57H0Z" transform="translate(145 57) rotate(180)"/></g><g transform="translate(351 0)"><path class="g" d="M33.218,3.312a7,7,0,0,1,8.564,0L58.788,16.463A7,7,0,0,1,54.506,29H20.494a7,7,0,0,1-4.282-12.537Z" transform="translate(113 92) rotate(180)"/><path class="g" d="M64.5,0,129,48H0Z" transform="translate(141 78) rotate(180)"/><path class="g" d="M75.5,0,151,60H0Z" transform="translate(151 60) rotate(180)"/></g><g transform="translate(304 0)"><path class="h" d="M28.773,3.2a7,7,0,0,1,8.454,0L49.395,12.42A7,7,0,0,1,45.168,25H20.832a7,7,0,0,1-4.227-12.58Z" transform="translate(99 81) rotate(180)"/><path class="h" d="M52.2,3.349a7,7,0,0,1,8.6,0L96.92,31.477A7,7,0,0,1,92.619,44H20.381a7,7,0,0,1-4.3-12.523Z" transform="translate(123 70) rotate(180)"/><path class="h" d="M61.668,3.413a7,7,0,0,1,8.664,0l45.8,36.088A7,7,0,0,1,111.8,52H20.2a7,7,0,0,1-4.332-12.5Z" transform="translate(132 52) rotate(180)"/></g><g transform="translate(601 0)"><path class="h" d="M28.773,3.2a7,7,0,0,1,8.454,0L49.395,12.42A7,7,0,0,1,45.168,25H20.832a7,7,0,0,1-4.227-12.58Z" transform="translate(100 81) rotate(180)"/><path class="h" d="M56.5,0,113,44H0Z" transform="translate(124 70) rotate(180)"/><path class="h" d="M66.5,0,133,52H0Z" transform="translate(133 52) rotate(180)"/></g><g transform="translate(268 0)"><path class="i" d="M23.557,3.65a7,7,0,0,1,8.886,0l8.45,6.941A7,7,0,0,1,36.45,23H19.55a7,7,0,0,1-4.443-12.409Z" transform="translate(85 70) rotate(180)"/><path class="i" d="M44.855,3.045a7,7,0,0,1,8.289,0L80.794,23.359A7,7,0,0,1,76.649,36h-55.3a7,7,0,0,1-4.145-12.641Z" transform="translate(106 58) rotate(180)"/><path class="i" d="M52.139,3.473a7,7,0,0,1,8.722,0L97.336,32.524A7,7,0,0,1,92.975,45H20.025a7,7,0,0,1-4.361-12.476Z" transform="translate(113 45) rotate(180)"/></g><g transform="translate(427 0)"><path class="h" d="M36.245,3.257a7,7,0,0,1,8.509,0L64.593,18.441A7,7,0,0,1,60.338,31H20.662a7,7,0,0,1-4.255-12.559Z" transform="translate(122 99) rotate(180)"/><path class="h" d="M65.255,3.237a7,7,0,0,1,8.489,0l48.777,37.2A7,7,0,0,1,118.277,53H20.723a7,7,0,0,1-4.245-12.566Z" transform="translate(151 85) rotate(180)"/><path class="h" d="M76.7,3.343a7,7,0,0,1,8.6,0l60.6,47.132A7,7,0,0,1,141.6,63H20.4a7,7,0,0,1-4.3-12.525Z" transform="translate(162 63) rotate(180)"/></g><g transform="translate(761 0)"><path class="g" d="M33.218,3.312a7,7,0,0,1,8.564,0L58.788,16.463A7,7,0,0,1,54.506,29H20.494a7,7,0,0,1-4.282-12.537Z" transform="translate(113 92) rotate(180)"/><path class="g" d="M60.321,3.11a7,7,0,0,1,8.358,0l43.369,32.274A7,7,0,0,1,107.869,48H21.131a7,7,0,0,1-4.179-12.616Z" transform="translate(141 78) rotate(180)"/><path class="g" d="M71.145,3.461a7,7,0,0,1,8.71,0L135.3,47.52A7,7,0,0,1,130.941,60H20.059A7,7,0,0,1,15.7,47.52Z" transform="translate(151 60) rotate(180)"/></g><g transform="translate(776 0)"><path class="i" d="M19.655,3.44a7,7,0,0,1,8.69,0l3.88,3.072A7,7,0,0,1,27.88,19H20.12A7,7,0,0,1,15.775,6.512Z" transform="translate(73 60) rotate(180)"/><path class="i" d="M37.931,2.906a7,7,0,0,1,8.137,0L66.225,17.3A7,7,0,0,1,62.157,30H21.843a7,7,0,0,1-4.069-12.7Z" transform="translate(91 50) rotate(180)"/><path class="i" d="M44.113,3.527a7,7,0,0,1,8.773,0L81.511,26.545A7,7,0,0,1,77.124,39H19.876a7,7,0,0,1-4.387-12.455Z" transform="translate(97 39) rotate(180)"/></g><g transform="translate(651 0)"><path class="g" d="M27.148,3.454a7,7,0,0,1,8.7,0l11.42,9.063A7,7,0,0,1,42.92,25H20.08a7,7,0,0,1-4.352-12.483Z" transform="translate(94 77) rotate(180)"/><path class="g" d="M49.308,3.134a7,7,0,0,1,8.383,0l32.447,24.26A7,7,0,0,1,85.947,40H21.053a7,7,0,0,1-4.192-12.606Z" transform="translate(117 65) rotate(180)"/><path class="g" d="M62.5,0,125,50H0Z" transform="translate(125 50) rotate(180)"/></g><g transform="translate(568 0)"><path class="i" d="M25.627,3.5a7,7,0,0,1,8.746,0l10.045,8.036A7,7,0,0,1,40.045,24H19.955a7,7,0,0,1-4.373-12.466Z" transform="translate(92 75) rotate(180)"/><path class="i" d="M48.4,2.971a7,7,0,0,1,8.209,0L87.495,25.33A7,7,0,0,1,83.39,38H21.61a7,7,0,0,1-4.1-12.67Z" transform="translate(114 63) rotate(180)"/><path class="i" d="M56.671,3.406a7,7,0,0,1,8.657,0L106.113,35.5A7,7,0,0,1,101.784,48H20.216a7,7,0,0,1-4.329-12.5Z" transform="translate(122 48) rotate(180)"/></g><g transform="translate(700 0)"><path class="h" d="M32.337,3.079a7,7,0,0,1,8.326,0L55.929,14.372A7,7,0,0,1,51.766,27H21.234a7,7,0,0,1-4.163-12.628Z" transform="translate(110 88) rotate(180)"/><path class="h" d="M57.771,3.206a7,7,0,0,1,8.457,0l41.179,31.216A7,7,0,0,1,103.179,47H20.821a7,7,0,0,1-4.229-12.578Z" transform="translate(136 76) rotate(180)"/><path class="h" d="M68.692,3.364a7,7,0,0,1,8.616,0l52.661,41.119A7,7,0,0,1,125.661,57H20.339a7,7,0,0,1-4.308-12.517Z" transform="translate(146 57) rotate(180)"/></g></g><g class="k" transform="translate(1713 545)"><g transform="translate(81 0)"><path class="g" d="M28.773,3.2a7,7,0,0,1,8.454,0L49.395,12.42A7,7,0,0,1,45.168,25H20.832a7,7,0,0,1-4.227-12.58Z" transform="translate(99 81) rotate(180)"/><path class="g" d="M56.5,42.364,113,0H0Z" transform="translate(10 26.204)"/><path class="g" d="M66,0l66,52H0Z" transform="translate(132 52) rotate(180)"/></g><g transform="translate(0 0)"><path class="h" d="M35.712,3.323a7,7,0,0,1,8.576,0L63.829,18.467A7,7,0,0,1,59.541,31H20.459a7,7,0,0,1-4.288-12.533Z" transform="translate(121 99) rotate(180)"/><path class="h" d="M65.359,3.039a7,7,0,0,1,8.283,0L121.77,38.356A7,7,0,0,1,117.629,51H21.371A7,7,0,0,1,17.23,38.356Z" transform="translate(151 83) rotate(180)"/><path class="h" d="M76.7,3.343a7,7,0,0,1,8.6,0l60.6,47.132A7,7,0,0,1,141.6,63H20.4a7,7,0,0,1-4.3-12.525Z" transform="translate(162 63) rotate(180)"/></g><g transform="translate(224 0)"><path class="g" d="M27.39,4.033a7,7,0,0,1,9.219,0l13.37,11.7A7,7,0,0,1,45.37,28H18.63a7,7,0,0,1-4.61-12.268Z" transform="translate(96 86) rotate(180)"/><path class="g" d="M53.5,0,107,46H0Z" transform="translate(118 73) rotate(180)"/><path class="g" d="M63.5,0,127,56H0Z" transform="translate(127 56) rotate(180)"/></g><g transform="translate(126 0)"><path class="i" d="M23.557,3.65a7,7,0,0,1,8.886,0l8.45,6.941A7,7,0,0,1,36.45,23H19.55a7,7,0,0,1-4.443-12.409Z" transform="translate(85 70) rotate(180)"/><path class="i" d="M44.855,3.045a7,7,0,0,1,8.289,0L80.794,23.359A7,7,0,0,1,76.649,36h-55.3a7,7,0,0,1-4.145-12.641Z" transform="translate(106 58) rotate(180)"/><path class="i" d="M52.139,3.473a7,7,0,0,1,8.722,0L97.336,32.524A7,7,0,0,1,92.975,45H20.025a7,7,0,0,1-4.361-12.476Z" transform="translate(113 45) rotate(180)"/></g><g transform="translate(159 0)"><path class="h" d="M33.218,3.312a7,7,0,0,1,8.564,0L58.788,16.463A7,7,0,0,1,54.506,29H20.494a7,7,0,0,1-4.282-12.537Z" transform="translate(113 92) rotate(180)"/><path class="h" d="M60.842,3.071a7,7,0,0,1,8.317,0l43.737,32.3A7,7,0,0,1,108.737,48H21.263A7,7,0,0,1,17.1,35.369Z" transform="translate(141 78) rotate(180)"/><path class="h" d="M71.145,3.461a7,7,0,0,1,8.71,0L135.3,47.52A7,7,0,0,1,130.941,60H20.059A7,7,0,0,1,15.7,47.52Z" transform="translate(151 60) rotate(180)"/></g><g transform="translate(487 0)"><path class="g" d="M31.8,3.15a7,7,0,0,1,8.4,0l15,11.25A7,7,0,0,1,51,27H21a7,7,0,0,1-4.2-12.6Z" transform="translate(109 88) rotate(180)"/><path class="g" d="M62,0l62,46H0Z" transform="translate(136 75) rotate(180)"/><path class="g" d="M72.5,0,145,57H0Z" transform="translate(145 57) rotate(180)"/></g><g transform="translate(351 0)"><path class="g" d="M33.218,3.312a7,7,0,0,1,8.564,0L58.788,16.463A7,7,0,0,1,54.506,29H20.494a7,7,0,0,1-4.282-12.537Z" transform="translate(113 92) rotate(180)"/><path class="g" d="M64.5,0,129,48H0Z" transform="translate(141 78) rotate(180)"/><path class="g" d="M75.5,0,151,60H0Z" transform="translate(151 60) rotate(180)"/></g><g transform="translate(304 0)"><path class="h" d="M28.773,3.2a7,7,0,0,1,8.454,0L49.395,12.42A7,7,0,0,1,45.168,25H20.832a7,7,0,0,1-4.227-12.58Z" transform="translate(99 81) rotate(180)"/><path class="h" d="M52.2,3.349a7,7,0,0,1,8.6,0L96.92,31.477A7,7,0,0,1,92.619,44H20.381a7,7,0,0,1-4.3-12.523Z" transform="translate(123 70) rotate(180)"/><path class="h" d="M61.668,3.413a7,7,0,0,1,8.664,0l45.8,36.088A7,7,0,0,1,111.8,52H20.2a7,7,0,0,1-4.332-12.5Z" transform="translate(132 52) rotate(180)"/></g><g transform="translate(601 0)"><path class="h" d="M28.773,3.2a7,7,0,0,1,8.454,0L49.395,12.42A7,7,0,0,1,45.168,25H20.832a7,7,0,0,1-4.227-12.58Z" transform="translate(100 81) rotate(180)"/><path class="h" d="M56.5,0,113,44H0Z" transform="translate(124 70) rotate(180)"/><path class="h" d="M66.5,0,133,52H0Z" transform="translate(133 52) rotate(180)"/></g><g transform="translate(268 0)"><path class="i" d="M23.557,3.65a7,7,0,0,1,8.886,0l8.45,6.941A7,7,0,0,1,36.45,23H19.55a7,7,0,0,1-4.443-12.409Z" transform="translate(85 70) rotate(180)"/><path class="i" d="M44.855,3.045a7,7,0,0,1,8.289,0L80.794,23.359A7,7,0,0,1,76.649,36h-55.3a7,7,0,0,1-4.145-12.641Z" transform="translate(106 58) rotate(180)"/><path class="i" d="M52.139,3.473a7,7,0,0,1,8.722,0L97.336,32.524A7,7,0,0,1,92.975,45H20.025a7,7,0,0,1-4.361-12.476Z" transform="translate(113 45) rotate(180)"/></g><g transform="translate(427 0)"><path class="h" d="M36.245,3.257a7,7,0,0,1,8.509,0L64.593,18.441A7,7,0,0,1,60.338,31H20.662a7,7,0,0,1-4.255-12.559Z" transform="translate(122 99) rotate(180)"/><path class="h" d="M65.255,3.237a7,7,0,0,1,8.489,0l48.777,37.2A7,7,0,0,1,118.277,53H20.723a7,7,0,0,1-4.245-12.566Z" transform="translate(151 85) rotate(180)"/><path class="h" d="M76.7,3.343a7,7,0,0,1,8.6,0l60.6,47.132A7,7,0,0,1,141.6,63H20.4a7,7,0,0,1-4.3-12.525Z" transform="translate(162 63) rotate(180)"/></g><g transform="translate(761 0)"><path class="g" d="M33.218,3.312a7,7,0,0,1,8.564,0L58.788,16.463A7,7,0,0,1,54.506,29H20.494a7,7,0,0,1-4.282-12.537Z" transform="translate(113 92) rotate(180)"/><path class="g" d="M60.321,3.11a7,7,0,0,1,8.358,0l43.369,32.274A7,7,0,0,1,107.869,48H21.131a7,7,0,0,1-4.179-12.616Z" transform="translate(141 78) rotate(180)"/><path class="g" d="M71.145,3.461a7,7,0,0,1,8.71,0L135.3,47.52A7,7,0,0,1,130.941,60H20.059A7,7,0,0,1,15.7,47.52Z" transform="translate(151 60) rotate(180)"/></g><g transform="translate(776 0)"><path class="i" d="M19.655,3.44a7,7,0,0,1,8.69,0l3.88,3.072A7,7,0,0,1,27.88,19H20.12A7,7,0,0,1,15.775,6.512Z" transform="translate(73 60) rotate(180)"/><path class="i" d="M37.931,2.906a7,7,0,0,1,8.137,0L66.225,17.3A7,7,0,0,1,62.157,30H21.843a7,7,0,0,1-4.069-12.7Z" transform="translate(91 50) rotate(180)"/><path class="i" d="M44.113,3.527a7,7,0,0,1,8.773,0L81.511,26.545A7,7,0,0,1,77.124,39H19.876a7,7,0,0,1-4.387-12.455Z" transform="translate(97 39) rotate(180)"/></g><g transform="translate(651 0)"><path class="g" d="M27.148,3.454a7,7,0,0,1,8.7,0l11.42,9.063A7,7,0,0,1,42.92,25H20.08a7,7,0,0,1-4.352-12.483Z" transform="translate(94 77) rotate(180)"/><path class="g" d="M49.308,3.134a7,7,0,0,1,8.383,0l32.447,24.26A7,7,0,0,1,85.947,40H21.053a7,7,0,0,1-4.192-12.606Z" transform="translate(117 65) rotate(180)"/><path class="g" d="M62.5,0,125,50H0Z" transform="translate(125 50) rotate(180)"/></g><g transform="translate(568 0)"><path class="i" d="M25.627,3.5a7,7,0,0,1,8.746,0l10.045,8.036A7,7,0,0,1,40.045,24H19.955a7,7,0,0,1-4.373-12.466Z" transform="translate(92 75) rotate(180)"/><path class="i" d="M48.4,2.971a7,7,0,0,1,8.209,0L87.495,25.33A7,7,0,0,1,83.39,38H21.61a7,7,0,0,1-4.1-12.67Z" transform="translate(114 63) rotate(180)"/><path class="i" d="M56.671,3.406a7,7,0,0,1,8.657,0L106.113,35.5A7,7,0,0,1,101.784,48H20.216a7,7,0,0,1-4.329-12.5Z" transform="translate(122 48) rotate(180)"/></g><g transform="translate(700 0)"><path class="h" d="M32.337,3.079a7,7,0,0,1,8.326,0L55.929,14.372A7,7,0,0,1,51.766,27H21.234a7,7,0,0,1-4.163-12.628Z" transform="translate(110 88) rotate(180)"/><path class="h" d="M57.771,3.206a7,7,0,0,1,8.457,0l41.179,31.216A7,7,0,0,1,103.179,47H20.821a7,7,0,0,1-4.229-12.578Z" transform="translate(136 76) rotate(180)"/><path class="h" d="M68.692,3.364a7,7,0,0,1,8.616,0l52.661,41.119A7,7,0,0,1,125.661,57H20.339a7,7,0,0,1-4.308-12.517Z" transform="translate(146 57) rotate(180)"/></g></g></g></svg>