<svg xmlns="http://www.w3.org/2000/svg" xmlns:xlink="http://www.w3.org/1999/xlink" width="2665" height="954" viewBox="0 0 2665 954"><defs><clipPath id="b"><rect width="2665" height="954"/></clipPath></defs><g id="a" clip-path="url(#b)"><rect width="2665" height="954" fill="rgba(255,255,255,0)"/><g transform="translate(63 -303)" opacity="0.31"><g transform="translate(-44 848)"><g transform="translate(81 0)"><path d="M33,0,66,22H0Z" transform="translate(99 71) rotate(180)" fill="#1e2d32"/><path d="M56.5,0,113,37H0Z" transform="translate(123 60) rotate(180)" fill="#1e2d32"/><path d="M66,0l66,46H0Z" transform="translate(132 46) rotate(180)" fill="#1e2d32"/></g><path d="M40,0,80,27H0Z" transform="translate(121 87) rotate(180)" fill="#4f6563"/><path d="M69.5,0,139,46H0Z" transform="translate(151 74) rotate(180)" fill="#4f6563"/><path d="M81,0l81,56H0Z" transform="translate(162 56) rotate(180)" fill="#4f6563"/><g transform="translate(224)"><path d="M32,0,64,24H0Z" transform="translate(96 76) rotate(180)" fill="#1e2d32"/><path d="M53.5,0,107,39H0Z" transform="translate(118 64) rotate(180)" fill="#1e2d32"/><path d="M63.5,0,127,49H0Z" transform="translate(127 49) rotate(180)" fill="#1e2d32"/></g><g transform="translate(126 0)"><path d="M28,0,56,19H0Z" transform="translate(85 61) rotate(180)" fill="#ca9954"/><path d="M49,0,98,32H0Z" transform="translate(106 52) rotate(180)" fill="#ca9954"/><path d="M56.5,0,113,39H0Z" transform="translate(113 39) rotate(180)" fill="#ca9954"/></g><g transform="translate(159 0)"><path d="M37.5,0,75,25H0Z" transform="translate(113 81) rotate(180)" fill="#4f6563"/><path d="M65,0l65,42H0Z" transform="translate(141 69) rotate(180)" fill="#4f6563"/><path d="M75.5,0,151,52H0Z" transform="translate(151 52) rotate(180)" fill="#4f6563"/></g><g transform="translate(487 0)"><path d="M36,0,72,24H0Z" transform="translate(109 78) rotate(180)" fill="#1e2d32"/><path d="M62,0l62,41H0Z" transform="translate(136 66) rotate(180)" fill="#1e2d32"/><path d="M72.5,0,145,50H0Z" transform="translate(145 50) rotate(180)" fill="#1e2d32"/></g><g transform="translate(351 0)"><path d="M37.5,0,75,25H0Z" transform="translate(113 81) rotate(180)" fill="#1e2d32"/><path d="M64.5,0,129,43H0Z" transform="translate(141 69) rotate(180)" fill="#1e2d32"/><path d="M75.5,0,151,52H0Z" transform="translate(151 52) rotate(180)" fill="#1e2d32"/></g><g transform="translate(304 0)"><path d="M33,0,66,23H0Z" transform="translate(99 72) rotate(180)" fill="#4f6563"/><path d="M56.5,0,113,38H0Z" transform="translate(123 61) rotate(180)" fill="#4f6563"/><path d="M66,0l66,46H0Z" transform="translate(132 46) rotate(180)" fill="#4f6563"/></g><g transform="translate(601 0)"><path d="M33,0,66,22H0Z" transform="translate(100 71) rotate(180)" fill="#4f6563"/><path d="M56.5,0,113,38H0Z" transform="translate(124 61) rotate(180)" fill="#4f6563"/><path d="M66.5,0,133,46H0Z" transform="translate(133 46) rotate(180)" fill="#4f6563"/></g><g transform="translate(268 0)"><path d="M28,0,56,19H0Z" transform="translate(85 61) rotate(180)" fill="#ca9954"/><path d="M49,0,98,32H0Z" transform="translate(106 52) rotate(180)" fill="#ca9954"/><path d="M56.5,0,113,39H0Z" transform="translate(113 39) rotate(180)" fill="#ca9954"/></g><g transform="translate(427)"><path d="M40.5,0,81,27H0Z" transform="translate(122 87) rotate(180)" fill="#4f6563"/><path d="M69.5,0,139,46H0Z" transform="translate(151 74) rotate(180)" fill="#4f6563"/><path d="M81,0l81,56H0Z" transform="translate(162 56) rotate(180)" fill="#4f6563"/></g><g transform="translate(761 0)"><path d="M37.5,0,75,25H0Z" transform="translate(113 81) rotate(180)" fill="#1e2d32"/><path d="M64.5,0,129,43H0Z" transform="translate(141 69) rotate(180)" fill="#1e2d32"/><path d="M75.5,0,151,52H0Z" transform="translate(151 52) rotate(180)" fill="#1e2d32"/></g><g transform="translate(776 0)"><path d="M24,0,48,16H0Z" transform="translate(73 52) rotate(180)" fill="#ca9954"/><path d="M42,0,84,27H0Z" transform="translate(91 44) rotate(180)" fill="#ca9954"/><path d="M48.5,0,97,34H0Z" transform="translate(97 34) rotate(180)" fill="#ca9954"/></g><g transform="translate(651 0)"><path d="M31.5,0,63,21H0Z" transform="translate(94 67) rotate(180)" fill="#1e2d32"/><path d="M53.5,0,107,35H0Z" transform="translate(117 57) rotate(180)" fill="#1e2d32"/><path d="M62.5,0,125,44H0Z" transform="translate(125 44) rotate(180)" fill="#1e2d32"/></g><g transform="translate(568)"><path d="M30,0,60,21H0Z" transform="translate(92 66) rotate(180)" fill="#ca9954"/><path d="M52.5,0,105,33H0Z" transform="translate(114 55) rotate(180)" fill="#ca9954"/><path d="M61,0l61,42H0Z" transform="translate(122 42) rotate(180)" fill="#ca9954"/></g><g transform="translate(700 0)"><path d="M36.5,0,73,24H0Z" transform="translate(110 78) rotate(180)" fill="#4f6563"/><path d="M62,0l62,42H0Z" transform="translate(136 67) rotate(180)" fill="#4f6563"/><path d="M73,0l73,51H0Z" transform="translate(146 51) rotate(180)" fill="#4f6563"/></g></g><g transform="translate(807 848)"><g transform="translate(81 0)"><path d="M33,0,66,22H0Z" transform="translate(99 71) rotate(180)" fill="#1e2d32"/><path d="M56.5,0,113,37H0Z" transform="translate(123 60) rotate(180)" fill="#1e2d32"/><path d="M66,0l66,46H0Z" transform="translate(132 46) rotate(180)" fill="#1e2d32"/></g><path d="M40,0,80,27H0Z" transform="translate(121 87) rotate(180)" fill="#4f6563"/><path d="M69.5,0,139,46H0Z" transform="translate(151 74) rotate(180)" fill="#4f6563"/><path d="M81,0l81,56H0Z" transform="translate(162 56) rotate(180)" fill="#4f6563"/><g transform="translate(224)"><path d="M32,0,64,24H0Z" transform="translate(96 76) rotate(180)" fill="#1e2d32"/><path d="M53.5,0,107,39H0Z" transform="translate(118 64) rotate(180)" fill="#1e2d32"/><path d="M63.5,0,127,49H0Z" transform="translate(127 49) rotate(180)" fill="#1e2d32"/></g><g transform="translate(126 0)"><path d="M28,0,56,19H0Z" transform="translate(85.001 61) rotate(180)" fill="#ca9954"/><path d="M49,0,98,32H0Z" transform="translate(106.001 52) rotate(180)" fill="#ca9954"/><path d="M56.5,0,113,39H0Z" transform="translate(113.001 39) rotate(180)" fill="#ca9954"/></g><g transform="translate(159 0)"><path d="M37.5,0,75,25H0Z" transform="translate(113 81) rotate(180)" fill="#4f6563"/><path d="M65,0l65,42H0Z" transform="translate(141 69) rotate(180)" fill="#4f6563"/><path d="M75.5,0,151,52H0Z" transform="translate(151 52) rotate(180)" fill="#4f6563"/></g><g transform="translate(487 0)"><path d="M36,0,72,24H0Z" transform="translate(109 78) rotate(180)" fill="#1e2d32"/><path d="M62,0l62,41H0Z" transform="translate(136 66) rotate(180)" fill="#1e2d32"/><path d="M72.5,0,145,50H0Z" transform="translate(145 50) rotate(180)" fill="#1e2d32"/></g><g transform="translate(351 0)"><path d="M37.5,0,75,25H0Z" transform="translate(113 81) rotate(180)" fill="#1e2d32"/><path d="M64.5,0,129,43H0Z" transform="translate(141 69) rotate(180)" fill="#1e2d32"/><path d="M75.5,0,151,52H0Z" transform="translate(151 52) rotate(180)" fill="#1e2d32"/></g><g transform="translate(304 0)"><path d="M33,0,66,23H0Z" transform="translate(99 72) rotate(180)" fill="#4f6563"/><path d="M56.5,0,113,38H0Z" transform="translate(123 61) rotate(180)" fill="#4f6563"/><path d="M66,0l66,46H0Z" transform="translate(132 46) rotate(180)" fill="#4f6563"/></g><g transform="translate(601 0)"><path d="M33,0,66,22H0Z" transform="translate(100 71) rotate(180)" fill="#4f6563"/><path d="M56.5,0,113,38H0Z" transform="translate(124 61) rotate(180)" fill="#4f6563"/><path d="M66.5,0,133,46H0Z" transform="translate(133 46) rotate(180)" fill="#4f6563"/></g><g transform="translate(268 0)"><path d="M28,0,56,19H0Z" transform="translate(85 61) rotate(180)" fill="#ca9954"/><path d="M49,0,98,32H0Z" transform="translate(106 52) rotate(180)" fill="#ca9954"/><path d="M56.5,0,113,39H0Z" transform="translate(113 39) rotate(180)" fill="#ca9954"/></g><g transform="translate(427)"><path d="M40.5,0,81,27H0Z" transform="translate(122 87) rotate(180)" fill="#4f6563"/><path d="M69.5,0,139,46H0Z" transform="translate(151 74) rotate(180)" fill="#4f6563"/><path d="M81,0l81,56H0Z" transform="translate(162 56) rotate(180)" fill="#4f6563"/></g><g transform="translate(761 0)"><path d="M37.5,0,75,25H0Z" transform="translate(113 81) rotate(180)" fill="#1e2d32"/><path d="M64.5,0,129,43H0Z" transform="translate(141 69) rotate(180)" fill="#1e2d32"/><path d="M75.5,0,151,52H0Z" transform="translate(151 52) rotate(180)" fill="#1e2d32"/></g><g transform="translate(776 0)"><path d="M24,0,48,16H0Z" transform="translate(73 52) rotate(180)" fill="#ca9954"/><path d="M42,0,84,27H0Z" transform="translate(91 44) rotate(180)" fill="#ca9954"/><path d="M48.5,0,97,34H0Z" transform="translate(97 34) rotate(180)" fill="#ca9954"/></g><g transform="translate(651 0)"><path d="M31.5,0,63,21H0Z" transform="translate(94 67) rotate(180)" fill="#1e2d32"/><path d="M53.5,0,107,35H0Z" transform="translate(117 57) rotate(180)" fill="#1e2d32"/><path d="M62.5,0,125,44H0Z" transform="translate(125 44) rotate(180)" fill="#1e2d32"/></g><g transform="translate(568)"><path d="M30,0,60,21H0Z" transform="translate(92 66) rotate(180)" fill="#ca9954"/><path d="M52.5,0,105,33H0Z" transform="translate(114 55) rotate(180)" fill="#ca9954"/><path d="M61,0l61,42H0Z" transform="translate(122 42) rotate(180)" fill="#ca9954"/></g><g transform="translate(700 0)"><path d="M36.5,0,73,24H0Z" transform="translate(110 78) rotate(180)" fill="#4f6563"/><path d="M62,0l62,42H0Z" transform="translate(136 67) rotate(180)" fill="#4f6563"/><path d="M73,0l73,51H0Z" transform="translate(146 51) rotate(180)" fill="#4f6563"/></g></g><g transform="translate(1651 848)"><g transform="translate(81 0)"><path d="M33,0,66,22H0Z" transform="translate(99 71) rotate(180)" fill="#1e2d32"/><path d="M56.5,0,113,37H0Z" transform="translate(123 60) rotate(180)" fill="#1e2d32"/><path d="M66,0l66,46H0Z" transform="translate(132 46) rotate(180)" fill="#1e2d32"/></g><path d="M40,0,80,27H0Z" transform="translate(121 87) rotate(180)" fill="#4f6563"/><path d="M69.5,0,139,46H0Z" transform="translate(151 74) rotate(180)" fill="#4f6563"/><path d="M81,0l81,56H0Z" transform="translate(162 56) rotate(180)" fill="#4f6563"/><g transform="translate(224)"><path d="M32,0,64,24H0Z" transform="translate(96 76) rotate(180)" fill="#1e2d32"/><path d="M53.5,0,107,39H0Z" transform="translate(118 64) rotate(180)" fill="#1e2d32"/><path d="M63.5,0,127,49H0Z" transform="translate(127 49) rotate(180)" fill="#1e2d32"/></g><g transform="translate(126 0)"><path d="M28,0,56,19H0Z" transform="translate(85.001 61) rotate(180)" fill="#ca9954"/><path d="M49,0,98,32H0Z" transform="translate(106.001 52) rotate(180)" fill="#ca9954"/><path d="M56.5,0,113,39H0Z" transform="translate(113.001 39) rotate(180)" fill="#ca9954"/></g><g transform="translate(159 0)"><path d="M37.5,0,75,25H0Z" transform="translate(113 81) rotate(180)" fill="#4f6563"/><path d="M65,0l65,42H0Z" transform="translate(141 69) rotate(180)" fill="#4f6563"/><path d="M75.5,0,151,52H0Z" transform="translate(151 52) rotate(180)" fill="#4f6563"/></g><g transform="translate(487 0)"><path d="M36,0,72,24H0Z" transform="translate(109 78) rotate(180)" fill="#1e2d32"/><path d="M62,0l62,41H0Z" transform="translate(136 66) rotate(180)" fill="#1e2d32"/><path d="M72.5,0,145,50H0Z" transform="translate(145 50) rotate(180)" fill="#1e2d32"/></g><g transform="translate(351 0)"><path d="M37.5,0,75,25H0Z" transform="translate(113 81) rotate(180)" fill="#1e2d32"/><path d="M64.5,0,129,43H0Z" transform="translate(141 69) rotate(180)" fill="#1e2d32"/><path d="M75.5,0,151,52H0Z" transform="translate(151 52) rotate(180)" fill="#1e2d32"/></g><g transform="translate(304 0)"><path d="M33,0,66,22H0Z" transform="translate(99 71) rotate(180)" fill="#4f6563"/><path d="M56.5,0,113,37H0Z" transform="translate(123 60) rotate(180)" fill="#4f6563"/><path d="M66,0l66,46H0Z" transform="translate(132 46) rotate(180)" fill="#4f6563"/></g><g transform="translate(601 0)"><path d="M33,0,66,22H0Z" transform="translate(100 71) rotate(180)" fill="#4f6563"/><path d="M56.5,0,113,38H0Z" transform="translate(124 61) rotate(180)" fill="#4f6563"/><path d="M66.5,0,133,46H0Z" transform="translate(133 46) rotate(180)" fill="#4f6563"/></g><g transform="translate(268 0)"><path d="M28,0,56,19H0Z" transform="translate(85 61) rotate(180)" fill="#ca9954"/><path d="M49,0,98,32H0Z" transform="translate(106 52) rotate(180)" fill="#ca9954"/><path d="M56.5,0,113,39H0Z" transform="translate(113 39) rotate(180)" fill="#ca9954"/></g><g transform="translate(427)"><path d="M40.5,0,81,27H0Z" transform="translate(122 87) rotate(180)" fill="#4f6563"/><path d="M69.5,0,139,46H0Z" transform="translate(151 74) rotate(180)" fill="#4f6563"/><path d="M81,0l81,56H0Z" transform="translate(162 56) rotate(180)" fill="#4f6563"/></g><g transform="translate(761 0)"><path d="M37.5,0,75,25H0Z" transform="translate(113 81) rotate(180)" fill="#1e2d32"/><path d="M64.5,0,129,43H0Z" transform="translate(141 69) rotate(180)" fill="#1e2d32"/><path d="M75.5,0,151,52H0Z" transform="translate(151 52) rotate(180)" fill="#1e2d32"/></g><g transform="translate(776 0)"><path d="M24,0,48,16H0Z" transform="translate(73 52) rotate(180)" fill="#ca9954"/><path d="M42,0,84,27H0Z" transform="translate(91 44) rotate(180)" fill="#ca9954"/><path d="M48.5,0,97,34H0Z" transform="translate(97 34) rotate(180)" fill="#ca9954"/></g><g transform="translate(651 0)"><path d="M31.5,0,63,21H0Z" transform="translate(94 67) rotate(180)" fill="#1e2d32"/><path d="M53.5,0,107,35H0Z" transform="translate(117 57) rotate(180)" fill="#1e2d32"/><path d="M62.5,0,125,44H0Z" transform="translate(125 44) rotate(180)" fill="#1e2d32"/></g><g transform="translate(568)"><path d="M30,0,60,21H0Z" transform="translate(92 66) rotate(180)" fill="#ca9954"/><path d="M52.5,0,105,33H0Z" transform="translate(114 55) rotate(180)" fill="#ca9954"/><path d="M61,0l61,42H0Z" transform="translate(122 42) rotate(180)" fill="#ca9954"/></g><g transform="translate(700 0)"><path d="M36.5,0,73,24H0Z" transform="translate(110 78) rotate(180)" fill="#4f6563"/><path d="M62,0l62,42H0Z" transform="translate(136 67) rotate(180)" fill="#4f6563"/><path d="M73,0l73,51H0Z" transform="translate(146 51) rotate(180)" fill="#4f6563"/></g></g></g></g></svg>