<svg xmlns="http://www.w3.org/2000/svg" xmlns:xlink="http://www.w3.org/1999/xlink" width="2607" height="227" viewBox="0 0 2607 227"><defs><clipPath id="b"><rect width="2607" height="227"/></clipPath></defs><g id="a" clip-path="url(#b)"><rect width="2607" height="227" fill="rgba(255,255,255,0)"/><g transform="translate(44 -848)"><g transform="translate(-135.111 192.881)"><path d="M33,0,66,58H0Z" transform="translate(205.111 697.119)" fill="#1e2d32"/><path d="M56.5,0,113,97H0Z" transform="translate(182.111 725.119)" fill="#1e2d32"/><path d="M66,0l66,119H0Z" transform="translate(172.111 763.119)" fill="#1e2d32"/></g><g transform="translate(-216 151)"><path d="M40,0,80,71H0Z" transform="translate(213 697)" fill="#4f6563"/><path d="M69.5,0,139,119H0Z" transform="translate(184 732)" fill="#4f6563"/><path d="M81,0l81,146H0Z" transform="translate(172 778)" fill="#4f6563"/></g><g transform="translate(8.338 180.726)"><path d="M32,0,64,62H0Z" transform="translate(203.662 697.274)" fill="#1e2d32"/><path d="M53.5,0,107,103H0Z" transform="translate(182.662 727.274)" fill="#1e2d32"/><path d="M63.5,0,127,127H0Z" transform="translate(171.662 767.274)" fill="#1e2d32"/></g><g transform="translate(-90.004 219.802)"><path d="M28,0,56,50H0Z" transform="translate(201.003 697.198)" fill="#ca9954"/><path d="M49,0,98,82H0Z" transform="translate(180.003 721.198)" fill="#ca9954"/><path d="M56.5,0,113,102H0Z" transform="translate(172.003 753.198)" fill="#ca9954"/></g><g transform="translate(-57.111 166.552)"><path d="M37.5,0,75,66H0Z" transform="translate(210.111 697.448)" fill="#4f6563"/><path d="M65,0l65,110H0Z" transform="translate(183.111 729.448)" fill="#4f6563"/><path d="M75.5,0,151,136H0Z" transform="translate(172.111 772.448)" fill="#4f6563"/></g><g transform="translate(271.338 174.881)"><path d="M36,0,72,63H0Z" transform="translate(208.662 697.119)" fill="#1e2d32"/><path d="M62,0l62,107H0Z" transform="translate(183.662 728.119)" fill="#1e2d32"/><path d="M72.5,0,145,131H0Z" transform="translate(171.662 769.119)" fill="#1e2d32"/></g><g transform="translate(135.338 166.881)"><path d="M37.5,0,75,66H0Z" transform="translate(209.662 697.119)" fill="#1e2d32"/><path d="M64.5,0,129,111H0Z" transform="translate(183.662 729.119)" fill="#1e2d32"/><path d="M75.5,0,151,136H0Z" transform="translate(171.662 772.119)" fill="#1e2d32"/></g><g transform="translate(87.389 192.181)"><path d="M33,0,66,59H0Z" transform="translate(205.611 696.819)" fill="#4f6563"/><path d="M56.5,0,113,98H0Z" transform="translate(182.611 724.819)" fill="#4f6563"/><path d="M66,0l66,119H0Z" transform="translate(172.611 763.819)" fill="#4f6563"/></g><g transform="translate(385.251 192.404)"><path d="M33,0,66,58H0Z" transform="translate(205.749 697.596)" fill="#4f6563"/><path d="M56.5,0,113,98H0Z" transform="translate(182.749 724.596)" fill="#4f6563"/><path d="M66.5,0,133,120H0Z" transform="translate(171.749 762.596)" fill="#4f6563"/></g><g transform="translate(51.996 219.802)"><path d="M28,0,56,50H0Z" transform="translate(201.003 697.198)" fill="#ca9954"/><path d="M49,0,98,82H0Z" transform="translate(180.003 721.198)" fill="#ca9954"/><path d="M56.5,0,113,102H0Z" transform="translate(172.003 753.198)" fill="#ca9954"/></g><g transform="translate(210.889 150.559)"><path d="M40.5,0,81,71H0Z" transform="translate(213.111 697.441)" fill="#4f6563"/><path d="M69.5,0,139,120H0Z" transform="translate(184.111 731.441)" fill="#4f6563"/><path d="M81,0l81,146H0Z" transform="translate(172.111 778.441)" fill="#4f6563"/></g><g transform="translate(545.338 166.881)"><path d="M37.5,0,75,66H0Z" transform="translate(209.662 697.119)" fill="#1e2d32"/><path d="M64.5,0,129,111H0Z" transform="translate(183.662 729.119)" fill="#1e2d32"/><path d="M75.5,0,151,136H0Z" transform="translate(171.662 772.119)" fill="#1e2d32"/></g><g transform="translate(559.996 241.968)"><path d="M24,0,48,43H0Z" transform="translate(197.004 697.032)" fill="#ca9954"/><path d="M42,0,84,70H0Z" transform="translate(179.004 718.032)" fill="#ca9954"/><path d="M48.5,0,97,88H0Z" transform="translate(172.004 745.032)" fill="#ca9954"/></g><g transform="translate(435.338 203.213)"><path d="M31.5,0,63,55H0Z" transform="translate(202.662 696.787)" fill="#1e2d32"/><path d="M53.5,0,107,92H0Z" transform="translate(181.662 723.787)" fill="#1e2d32"/><path d="M62.5,0,125,113H0Z" transform="translate(171.662 758.787)" fill="#1e2d32"/></g><g transform="translate(352.414 207.802)"><path d="M30,0,60,54H0Z" transform="translate(203.586 697.198)" fill="#ca9954"/><path d="M52.5,0,105,88H0Z" transform="translate(180.586 723.198)" fill="#ca9954"/><path d="M61,0l61,110H0Z" transform="translate(171.586 757.198)" fill="#ca9954"/></g><g transform="translate(484.233 174.296)"><path d="M36.5,0,73,64H0Z" transform="translate(208.768 697.704)" fill="#4f6563"/><path d="M62,0l62,107H0Z" transform="translate(183.768 727.704)" fill="#4f6563"/><path d="M73,0l73,132H0Z" transform="translate(171.768 768.704)" fill="#4f6563"/></g><g transform="translate(851)"><g transform="translate(-135.111 192.881)"><path d="M33,0,66,58H0Z" transform="translate(205.111 697.119)" fill="#1e2d32"/><path d="M56.5,0,113,97H0Z" transform="translate(182.111 725.119)" fill="#1e2d32"/><path d="M66,0l66,119H0Z" transform="translate(172.111 763.119)" fill="#1e2d32"/></g><g transform="translate(-216 151)"><path d="M40,0,80,71H0Z" transform="translate(213 697)" fill="#4f6563"/><path d="M69.5,0,139,119H0Z" transform="translate(184 732)" fill="#4f6563"/><path d="M81,0l81,146H0Z" transform="translate(172 778)" fill="#4f6563"/></g><g transform="translate(8.338 180.726)"><path d="M32,0,64,62H0Z" transform="translate(203.662 697.274)" fill="#1e2d32"/><path d="M53.5,0,107,103H0Z" transform="translate(182.662 727.274)" fill="#1e2d32"/><path d="M63.5,0,127,127H0Z" transform="translate(171.662 767.274)" fill="#1e2d32"/></g><g transform="translate(-90.004 219.802)"><path d="M28,0,56,50H0Z" transform="translate(201.003 697.198)" fill="#ca9954"/><path d="M49,0,98,82H0Z" transform="translate(180.003 721.198)" fill="#ca9954"/><path d="M56.5,0,113,102H0Z" transform="translate(172.003 753.198)" fill="#ca9954"/></g><g transform="translate(-57.111 166.552)"><path d="M37.5,0,75,66H0Z" transform="translate(210.111 697.448)" fill="#4f6563"/><path d="M65,0l65,110H0Z" transform="translate(183.111 729.448)" fill="#4f6563"/><path d="M75.5,0,151,136H0Z" transform="translate(172.111 772.448)" fill="#4f6563"/></g><g transform="translate(271.338 174.881)"><path d="M36,0,72,63H0Z" transform="translate(208.662 697.119)" fill="#1e2d32"/><path d="M62,0l62,107H0Z" transform="translate(183.662 728.119)" fill="#1e2d32"/><path d="M72.5,0,145,131H0Z" transform="translate(171.662 769.119)" fill="#1e2d32"/></g><g transform="translate(135.338 166.881)"><path d="M37.5,0,75,66H0Z" transform="translate(209.662 697.119)" fill="#1e2d32"/><path d="M64.5,0,129,111H0Z" transform="translate(183.662 729.119)" fill="#1e2d32"/><path d="M75.5,0,151,136H0Z" transform="translate(171.662 772.119)" fill="#1e2d32"/></g><g transform="translate(87.389 192.181)"><path d="M33,0,66,59H0Z" transform="translate(205.611 696.819)" fill="#4f6563"/><path d="M56.5,0,113,98H0Z" transform="translate(182.611 724.819)" fill="#4f6563"/><path d="M66,0l66,119H0Z" transform="translate(172.611 763.819)" fill="#4f6563"/></g><g transform="translate(385.251 192.404)"><path d="M33,0,66,58H0Z" transform="translate(205.749 697.596)" fill="#4f6563"/><path d="M56.5,0,113,98H0Z" transform="translate(182.749 724.596)" fill="#4f6563"/><path d="M66.5,0,133,120H0Z" transform="translate(171.749 762.596)" fill="#4f6563"/></g><g transform="translate(51.996 219.802)"><path d="M28,0,56,50H0Z" transform="translate(201.003 697.198)" fill="#ca9954"/><path d="M49,0,98,82H0Z" transform="translate(180.003 721.198)" fill="#ca9954"/><path d="M56.5,0,113,102H0Z" transform="translate(172.003 753.198)" fill="#ca9954"/></g><g transform="translate(210.889 150.559)"><path d="M40.5,0,81,71H0Z" transform="translate(213.111 697.441)" fill="#4f6563"/><path d="M69.5,0,139,120H0Z" transform="translate(184.111 731.441)" fill="#4f6563"/><path d="M81,0l81,146H0Z" transform="translate(172.111 778.441)" fill="#4f6563"/></g><g transform="translate(545.338 166.881)"><path d="M37.5,0,75,66H0Z" transform="translate(209.662 697.119)" fill="#1e2d32"/><path d="M64.5,0,129,111H0Z" transform="translate(183.662 729.119)" fill="#1e2d32"/><path d="M75.5,0,151,136H0Z" transform="translate(171.662 772.119)" fill="#1e2d32"/></g><g transform="translate(559.996 241.968)"><path d="M24,0,48,43H0Z" transform="translate(197.004 697.032)" fill="#ca9954"/><path d="M42,0,84,70H0Z" transform="translate(179.004 718.032)" fill="#ca9954"/><path d="M48.5,0,97,88H0Z" transform="translate(172.004 745.032)" fill="#ca9954"/></g><g transform="translate(435.338 203.213)"><path d="M31.5,0,63,55H0Z" transform="translate(202.662 696.787)" fill="#1e2d32"/><path d="M53.5,0,107,92H0Z" transform="translate(181.662 723.787)" fill="#1e2d32"/><path d="M62.5,0,125,113H0Z" transform="translate(171.662 758.787)" fill="#1e2d32"/></g><g transform="translate(352.414 207.802)"><path d="M30,0,60,54H0Z" transform="translate(203.586 697.198)" fill="#ca9954"/><path d="M52.5,0,105,88H0Z" transform="translate(180.586 723.198)" fill="#ca9954"/><path d="M61,0l61,110H0Z" transform="translate(171.586 757.198)" fill="#ca9954"/></g><g transform="translate(484.233 174.296)"><path d="M36.5,0,73,64H0Z" transform="translate(208.768 697.704)" fill="#4f6563"/><path d="M62,0l62,107H0Z" transform="translate(183.768 727.704)" fill="#4f6563"/><path d="M73,0l73,132H0Z" transform="translate(171.768 768.704)" fill="#4f6563"/></g></g><g transform="translate(1695)"><g transform="translate(-135.111 192.881)"><path d="M33,0,66,58H0Z" transform="translate(205.111 697.119)" fill="#1e2d32"/><path d="M56.5,0,113,97H0Z" transform="translate(182.111 725.119)" fill="#1e2d32"/><path d="M66,0l66,119H0Z" transform="translate(172.111 763.119)" fill="#1e2d32"/></g><g transform="translate(-216 151)"><path d="M40,0,80,71H0Z" transform="translate(213 697)" fill="#4f6563"/><path d="M69.5,0,139,119H0Z" transform="translate(184 732)" fill="#4f6563"/><path d="M81,0l81,146H0Z" transform="translate(172 778)" fill="#4f6563"/></g><g transform="translate(8.338 180.726)"><path d="M32,0,64,62H0Z" transform="translate(203.662 697.274)" fill="#1e2d32"/><path d="M53.5,0,107,103H0Z" transform="translate(182.662 727.274)" fill="#1e2d32"/><path d="M63.5,0,127,127H0Z" transform="translate(171.662 767.274)" fill="#1e2d32"/></g><g transform="translate(-90.004 219.802)"><path d="M28,0,56,50H0Z" transform="translate(201.003 697.198)" fill="#ca9954"/><path d="M49,0,98,82H0Z" transform="translate(180.003 721.198)" fill="#ca9954"/><path d="M56.5,0,113,102H0Z" transform="translate(172.003 753.198)" fill="#ca9954"/></g><g transform="translate(-57.111 166.552)"><path d="M37.5,0,75,66H0Z" transform="translate(210.111 697.448)" fill="#4f6563"/><path d="M65,0l65,110H0Z" transform="translate(183.111 729.448)" fill="#4f6563"/><path d="M75.5,0,151,136H0Z" transform="translate(172.111 772.448)" fill="#4f6563"/></g><g transform="translate(271.338 174.881)"><path d="M36,0,72,63H0Z" transform="translate(208.662 697.119)" fill="#1e2d32"/><path d="M62,0l62,107H0Z" transform="translate(183.662 728.119)" fill="#1e2d32"/><path d="M72.5,0,145,131H0Z" transform="translate(171.662 769.119)" fill="#1e2d32"/></g><g transform="translate(135.338 166.881)"><path d="M37.5,0,75,66H0Z" transform="translate(209.662 697.119)" fill="#1e2d32"/><path d="M64.5,0,129,111H0Z" transform="translate(183.662 729.119)" fill="#1e2d32"/><path d="M75.5,0,151,136H0Z" transform="translate(171.662 772.119)" fill="#1e2d32"/></g><g transform="translate(87.389 193.181)"><path d="M33,0,66,59H0Z" transform="translate(205.611 696.819)" fill="#4f6563"/><path d="M56.5,0,113,98H0Z" transform="translate(182.611 724.819)" fill="#4f6563"/><path d="M66,0l66,119H0Z" transform="translate(172.611 762.819)" fill="#4f6563"/></g><g transform="translate(385.251 192.404)"><path d="M33,0,66,58H0Z" transform="translate(205.749 697.596)" fill="#4f6563"/><path d="M56.5,0,113,98H0Z" transform="translate(182.749 724.596)" fill="#4f6563"/><path d="M66.5,0,133,120H0Z" transform="translate(171.749 762.596)" fill="#4f6563"/></g><g transform="translate(51.996 219.802)"><path d="M28,0,56,50H0Z" transform="translate(201.003 697.198)" fill="#ca9954"/><path d="M49,0,98,82H0Z" transform="translate(180.003 721.198)" fill="#ca9954"/><path d="M56.5,0,113,102H0Z" transform="translate(172.003 753.198)" fill="#ca9954"/></g><g transform="translate(210.889 150.559)"><path d="M40.5,0,81,71H0Z" transform="translate(213.111 697.441)" fill="#4f6563"/><path d="M69.5,0,139,120H0Z" transform="translate(184.111 731.441)" fill="#4f6563"/><path d="M81,0l81,146H0Z" transform="translate(172.111 778.441)" fill="#4f6563"/></g><g transform="translate(545.338 166.881)"><path d="M37.5,0,75,66H0Z" transform="translate(209.662 697.119)" fill="#1e2d32"/><path d="M64.5,0,129,111H0Z" transform="translate(183.662 729.119)" fill="#1e2d32"/><path d="M75.5,0,151,136H0Z" transform="translate(171.662 772.119)" fill="#1e2d32"/></g><g transform="translate(559.996 241.968)"><path d="M24,0,48,43H0Z" transform="translate(197.004 697.032)" fill="#ca9954"/><path d="M42,0,84,70H0Z" transform="translate(179.004 718.032)" fill="#ca9954"/><path d="M48.5,0,97,88H0Z" transform="translate(172.004 745.032)" fill="#ca9954"/></g><g transform="translate(435.338 203.213)"><path d="M31.5,0,63,55H0Z" transform="translate(202.662 696.787)" fill="#1e2d32"/><path d="M53.5,0,107,92H0Z" transform="translate(181.662 723.787)" fill="#1e2d32"/><path d="M62.5,0,125,113H0Z" transform="translate(171.662 758.787)" fill="#1e2d32"/></g><g transform="translate(352.414 207.802)"><path d="M30,0,60,54H0Z" transform="translate(203.586 697.198)" fill="#ca9954"/><path d="M52.5,0,105,88H0Z" transform="translate(180.586 723.198)" fill="#ca9954"/><path d="M61,0l61,110H0Z" transform="translate(171.586 757.198)" fill="#ca9954"/></g><g transform="translate(484.233 174.296)"><path d="M36.5,0,73,64H0Z" transform="translate(208.768 697.704)" fill="#4f6563"/><path d="M62,0l62,107H0Z" transform="translate(183.768 727.704)" fill="#4f6563"/><path d="M73,0l73,132H0Z" transform="translate(171.768 768.704)" fill="#4f6563"/></g></g></g></g></svg>